<?xml version="1.0" encoding="UTF-8" standalone="no"?>
<!-- Created with Inkscape (http://www.inkscape.org/) -->

<svg
   version="1.1"
   width="376"
   height="390"
   id="svg2"
   inkscape:version="1.1.1 (3bf5ae0d25, 2021-09-20)"
   sodipodi:docname="ridges.svg"
   xmlns:inkscape="http://www.inkscape.org/namespaces/inkscape"
   xmlns:sodipodi="http://sodipodi.sourceforge.net/DTD/sodipodi-0.dtd"
   xmlns:xlink="http://www.w3.org/1999/xlink"
   xmlns="http://www.w3.org/2000/svg"
   xmlns:svg="http://www.w3.org/2000/svg"
   xmlns:rdf="http://www.w3.org/1999/02/22-rdf-syntax-ns#"
   xmlns:cc="http://creativecommons.org/ns#"
   xmlns:dc="http://purl.org/dc/elements/1.1/">
  <metadata
     id="metadata42">
    <rdf:RDF>
      <cc:Work
         rdf:about="">
        <dc:format>image/svg+xml</dc:format>
        <dc:type
           rdf:resource="http://purl.org/dc/dcmitype/StillImage" />
      </cc:Work>
    </rdf:RDF>
  </metadata>
  <sodipodi:namedview
     pagecolor="#ffffff"
     bordercolor="#666666"
     borderopacity="1"
     objecttolerance="10"
     gridtolerance="10"
     guidetolerance="10"
     inkscape:pageopacity="0"
     inkscape:pageshadow="2"
     inkscape:window-width="1920"
     inkscape:window-height="1144"
     id="namedview40"
     showgrid="false"
     inkscape:zoom="1.711561"
     inkscape:cx="139.63861"
     inkscape:cy="181.41334"
     inkscape:window-x="1920"
     inkscape:window-y="28"
     inkscape:window-maximized="1"
     inkscape:current-layer="svg2"
     inkscape:pagecheckerboard="0" />
  <defs
     id="defs6" />
  <path
     style="fill:#b3e1f5;fill-opacity:1;stroke:none"
     d="m 0,4.1723251e-6 376,0 L 376,390 0,390 z"
     id="rect3663" />
  <path
     d="m 211.97049,294.79129 c -0.0372,-0.0367 -0.67468,-0.0953 -1.41672,-0.13008 -0.74189,-0.0347 -1.34683,-0.16933 -1.34413,-0.29898 0.0101,-0.35787 -0.98523,-0.29149 -1.39176,0.093 -0.28144,0.26655 -0.57407,0.22236 -1.3661,-0.20643 -0.97372,-0.52706 -1.03807,-0.52871 -1.89483,-0.0492 -0.62262,0.34833 -0.97585,0.40685 -1.18515,0.19628 -0.16411,-0.16502 -0.66054,-0.23325 -1.10314,-0.15159 -0.84179,0.15524 -3.65108,-1.02607 -4.29145,-1.80464 -0.1802,-0.21898 -0.56202,-0.4005 -0.84854,-0.40334 -0.28639,-0.003 -0.69624,-0.18166 -0.91056,-0.39734 -0.21445,-0.21569 -0.924,-0.48585 -1.57688,-0.60036 -0.82813,-0.14522 -1.1396,-0.32254 -1.0298,-0.58638 0.11091,-0.26647 -0.0185,-0.33548 -0.4355,-0.23364 -0.42542,0.10371 -0.86855,-0.14982 -1.56864,-0.89727 -0.86864,-0.9273 -1.16041,-1.05544 -2.65368,-1.16548 -1.07735,-0.0793 -2.16806,-0.38631 -3.04777,-0.85771 -0.75346,-0.40371 -1.72089,-0.73753 -2.14964,-0.7418 -0.42891,-0.005 -1.23028,-0.14817 -1.78094,-0.31982 -0.5506,-0.17163 -2.16975,-0.29309 -3.59816,-0.26994 -5.98642,0.0972 -5.97885,0.0986 -7.81069,-1.39261 -0.90791,-0.73905 -1.69179,-1.45213 -1.74185,-1.58458 -0.0502,-0.13248 -0.27237,-0.24265 -0.49397,-0.24487 -0.22165,-0.002 -2.44189,-2.05053 -4.93392,-4.55182 -2.49203,-2.50129 -4.64386,-4.54891 -4.78186,-4.5503 -0.13799,-8.1e-4 -0.74262,-0.44766 -1.34367,-0.99179 -0.60098,-0.54411 -1.22225,-1.00322 -1.38054,-1.02023 -1.02445,-0.11006 -1.50324,-0.32911 -1.99996,-0.91493 -1.0094,-1.19044 -2.78606,-2.17246 -4.2531,-2.35087 -1.11397,-0.13544 -1.62436,-0.38325 -2.40328,-1.16704 -0.54393,-0.54728 -1.1481,-0.99667 -1.34263,-0.99859 -0.19452,-0.002 -0.42436,-0.19419 -0.51078,-0.4272 -0.0863,-0.23305 -0.34102,-0.42553 -0.56581,-0.42778 -0.22478,-0.002 -0.77643,-0.1969 -1.22591,-0.43258 -0.86692,-0.45458 -2.44757,-0.58972 -2.81632,-0.24081 -0.1214,0.1149 -0.37213,0.2076 -0.55719,0.206 -0.20857,-0.002 -0.3072,0.35541 -0.25947,0.9397 l 0.0769,0.94257 -1.39289,-0.0949 c -1.33079,-0.0906 -2.41314,0.10882 -5.3096,0.9779 -0.71847,0.2156 -1.50912,0.38937 -1.75701,0.38614 -0.4939,-0.007 -1.79304,-1.2983 -2.03707,-2.02573 -0.27238,-0.81181 -1.58545,-0.92802 -2.38425,-0.21099 -0.39004,0.35007 -0.71454,0.78624 -0.72109,0.9692 -0.0183,0.50959 -1.04427,0.70309 -2.12221,0.40029 -0.53297,-0.14972 -1.15342,-0.17775 -1.37875,-0.0623 -0.51195,0.26226 -2.28028,-5.9e-4 -2.27318,-0.33798 0.002,-0.13716 -0.27653,-0.25224 -0.62095,-0.25565 -0.34439,-0.004 -0.85584,-0.21516 -1.13653,-0.47052 -0.46921,-0.42685 -0.56812,-0.42845 -1.22634,-0.0199 -0.39384,0.24456 -0.81309,0.72399 -0.93174,1.06545 -0.20297,0.58415 -0.23729,0.59096 -0.58133,0.11515 -0.3476,-0.48073 -0.38417,-0.47771 -0.74263,0.0609 -0.2937,0.44142 -0.49337,0.50401 -0.90354,0.28335 -0.40924,-0.22016 -0.64174,-0.14899 -1.04385,0.31961 -0.47781,0.55683 -0.60743,0.57545 -1.69782,0.24385 -1.0775,-0.32767 -1.26086,-0.3048 -2.10129,0.26242 -0.50641,0.34179 -0.95966,0.57554 -1.00716,0.51951 -0.61823,-0.72921 -0.71959,-1.46334 -0.2876,-2.08286 0.6188,-0.88742 0.59969,-1.3412 -0.0826,-1.9618 -0.66207,-0.60233 -0.7259,-1.5051 -0.12178,-1.72352 0.23264,-0.0841 0.51941,-0.70878 0.63894,-1.39193 0.18676,-1.067 0.3126,-1.23837 0.90517,-1.23247 0.37852,0.004 0.69092,-0.11982 0.69416,-0.27451 0.003,-0.15479 -0.37401,-0.28517 -0.83836,-0.2898 -0.56854,-0.006 -1.03435,-0.25242 -1.42639,-0.75567 -0.70127,-0.90023 -0.72057,-1.45953 -0.08,-2.32009 0.29332,-0.39409 0.52211,-1.32705 0.58333,-2.37854 0.1217,-2.09127 0.40687,-2.99351 0.94449,-2.98817 0.5259,0.005 3.23849,3.29666 3.22754,3.91627 -0.0225,1.25153 0.5326,2.47596 1.1667,2.57519 1.42931,0.22373 2.95255,0.17951 2.97073,-0.0863 0.0766,-1.11891 0.52251,-1.82406 1.14991,-1.81781 0.3721,0.004 1.01192,-0.24322 1.42171,-0.54872 0.88862,-0.66242 1.46817,-0.69861 1.94304,-0.12135 0.534,0.64908 1.02879,0.52483 2.15559,-0.54143 0.69398,-0.65673 1.29753,-0.97209 1.84978,-0.9666 0.83001,0.009 1.38766,-0.30345 2.06962,-1.15667 0.31295,-0.3915 0.2841,-0.56198 -0.17294,-1.02185 -0.3017,-0.30359 -0.68974,-0.60087 -0.86228,-0.66061 -0.21942,-0.0762 -0.19811,-0.31901 0.0708,-0.8084 0.27279,-0.49634 0.58333,-0.67554 1.06839,-0.6165 0.81576,0.0993 1.14362,0.38462 0.63737,0.55474 -0.58169,0.19549 -0.4292,0.63731 0.22226,0.64378 0.48214,0.005 0.56256,-0.1155 0.42017,-0.62904 -0.4213,-1.51937 -0.85564,-2.19682 -1.61068,-2.51211 -0.57816,-0.24146 -0.71686,-0.42239 -0.48903,-0.63797 0.22784,-0.21562 0.48832,-0.19415 0.91848,0.0757 0.49795,0.31232 0.6425,0.31281 0.84673,0.003 0.1958,-0.29722 0.32461,-0.26558 0.62833,0.15443 0.33141,0.45834 0.46407,0.47976 1.00143,0.16179 0.53408,-0.31603 0.69963,-0.29361 1.20134,0.16286 0.32007,0.29117 0.58435,0.4136 0.58734,0.2721 0.003,-0.14153 -0.25084,-0.418 -0.564,-0.61445 -0.31316,-0.19643 -0.56045,-0.57761 -0.54949,-0.84705 0.0169,-0.41698 0.0986,-0.39485 0.54792,0.14851 0.29039,0.35114 0.70206,0.63018 0.91482,0.62008 0.29167,-0.0137 0.29889,-0.0543 0.0293,-0.16387 -0.32214,-0.13109 -0.5123,-0.9444 -0.22014,-0.9415 0.4605,0.004 1.02442,0.41679 1.01755,0.74378 -0.007,0.29735 0.11803,0.27435 0.51503,-0.0954 0.50061,-0.46621 0.48833,-0.49723 -0.28365,-0.71703 -0.44381,-0.12634 -0.72583,-0.35286 -0.62672,-0.50331 0.0991,-0.15045 0.28493,-0.20856 0.41287,-0.1291 0.128,0.0795 0.30314,-0.0986 0.38921,-0.39552 0.1608,-0.55479 -0.25819,-0.86185 -1.18871,-0.87111 -0.39051,-0.004 -0.47208,-0.18633 -0.36422,-0.81456 0.15189,-0.88461 -0.34198,-1.41033 -0.86236,-0.91793 -0.18014,0.17048 -0.55708,0.30766 -0.83767,0.30487 -0.44055,-0.005 -0.37066,-0.25912 0.51223,-1.86741 0.56233,-1.02428 1.13355,-1.93675 1.26943,-2.02768 0.13586,-0.0909 0.75082,-0.7541 1.36659,-1.47362 1.08114,-1.26329 1.16219,-1.30266 2.36099,-1.14713 0.74756,0.0971 1.32128,0.0399 1.44219,-0.14375 0.11942,-0.18127 -0.0331,-0.30718 -0.37597,-0.31059 -0.73311,-0.007 -1.08577,-0.56057 -0.55742,-0.87449 0.52758,-0.31342 4.33697,-0.1925 4.78953,0.15253 0.4668,0.35547 1.87888,0.0108 1.74101,-0.42517 -0.0595,-0.18837 -0.55061,-0.42518 -1.09115,-0.52626 -0.62711,-0.11728 -0.74769,-0.19487 -0.33309,-0.21438 0.3573,-0.0165 0.65248,-0.16563 0.65596,-0.33064 0.003,-0.16504 -0.35143,-0.26353 -0.78866,-0.21891 -0.48982,0.05 -0.78773,0.24325 -0.77609,0.50346 0.0123,0.27036 -0.27696,0.44062 -0.80322,0.47317 -0.95352,0.059 -1.09988,-0.35339 -0.20304,-0.57211 0.34159,-0.0833 0.5271,-0.28327 0.42236,-0.45535 -0.10273,-0.16875 -0.30907,-0.23517 -0.45863,-0.14761 -0.14951,0.0877 -0.2697,0.0568 -0.26706,-0.0684 0.003,-0.1252 -0.76151,-0.23524 -1.69803,-0.24454 -0.93659,-0.0103 -1.5733,0.0636 -1.41492,0.1618 0.15837,0.0983 -0.0827,0.17259 -0.53582,0.16503 -0.45307,-0.008 -0.65955,-0.0679 -0.45886,-0.13414 0.47884,-0.15799 0.1778,-0.63704 -0.40394,-0.6428 -0.24948,-0.002 -0.90791,0.26152 -1.46313,0.58665 -1.07267,0.62816 -0.91131,1.06525 0.4013,1.08702 0.35684,0.006 0.64757,0.0692 0.64605,0.14064 -0.005,0.23493 -2.4832,2.52627 -3.57903,3.30907 -1.37577,0.98277 -3.76189,1.12119 -4.45095,0.25813 -0.30938,-0.38745 -0.48057,-0.4437 -0.59258,-0.19467 -0.20701,0.46025 -0.68839,0.44609 -0.67858,-0.02 0.0102,-0.45425 2.18931,-2.50042 2.41824,-2.27007 0.092,0.0927 0.26577,-0.23135 0.38625,-0.71972 0.18113,-0.73401 0.0865,-1.02717 -0.54538,-1.6912 -0.42045,-0.4418 -0.67585,-0.93782 -0.56757,-1.10222 0.11378,-0.17275 -0.35177,-0.56714 -1.10267,-0.93419 -1.3989,-0.6838 -1.54625,-1.09177 -0.86513,-2.39556 0.22775,-0.43593 0.6665,-1.29666 0.97498,-1.91272 0.65768,-1.31345 0.89509,-1.51488 1.57264,-1.33432 0.29094,0.0774 0.58206,-0.0577 0.69168,-0.32118 0.14811,-0.35602 0.3103,-0.38997 0.74524,-0.15596 0.86242,0.46397 0.9683,0.37589 0.8154,-0.67818 -0.0782,-0.53968 -0.0197,-1.05314 0.13048,-1.141 0.36833,-0.21569 0.35699,-0.68854 -0.0165,-0.69228 -0.34426,-0.004 -0.924,0.41727 -1.82038,1.32092 -0.36598,0.36894 -0.82358,0.56508 -1.10626,0.47414 -0.28954,-0.0931 -0.76227,0.12419 -1.18338,0.54398 -0.38567,0.38449 -0.92434,0.69905 -1.19699,0.69902 -0.30931,-3.5e-4 -0.43969,0.15113 -0.34668,0.40196 0.0854,0.23027 -0.10973,0.53317 -0.45662,0.70893 -0.33316,0.16878 -0.61083,0.54818 -0.61702,0.84309 -0.0189,0.88156 -0.57632,0.94194 -1.36555,0.1478 -0.68004,-0.68428 -0.70282,-0.78414 -0.27177,-1.19197 0.35917,-0.33986 0.40846,-0.61383 0.20845,-1.1585 -0.17349,-0.47234 -0.15887,-0.81091 0.0433,-1.00217 0.48749,-0.46129 0.36497,-0.73787 -0.334,-0.75404 -0.56921,-0.0132 -0.58763,-0.0487 -0.15008,-0.29034 0.53417,-0.29502 0.41932,-1.10555 -0.15749,-1.11128 -0.71862,-0.007 -1.68625,1.14974 -1.527,1.82566 0.0992,0.42065 -0.0296,0.82707 -0.36155,1.1428 -0.49167,0.46749 -0.5192,0.45991 -0.59892,-0.16482 -0.0459,-0.36019 0.0838,-0.75285 0.28825,-0.87261 0.25677,-0.15038 0.28503,-0.3341 0.0914,-0.59377 -0.15426,-0.20679 -0.23997,-1.16837 -0.19046,-2.13682 0.10419,-2.03846 -0.60882,-3.87657 -1.69758,-4.37603 -0.36949,-0.1695 -0.66821,-0.47779 -0.66386,-0.68505 0.0113,-0.51021 0.48509,-0.47397 0.68014,0.0519 0.17592,0.47435 1.48207,0.59132 1.76733,0.15825 0.10134,-0.15376 0.0589,-0.28085 -0.0943,-0.28236 -0.15311,-0.002 -0.20983,-0.28702 -0.12601,-0.63445 l 0.15242,-0.63168 -0.58612,0.62737 c -0.3224,0.34505 -0.67676,0.62647 -0.78749,0.62537 -0.31902,-0.003 0.16486,-1.43115 0.63602,-1.87702 0.23483,-0.22219 0.42879,-0.49174 0.43104,-0.59901 0.002,-0.10722 -0.63367,-0.9905 -1.41319,-1.96283 -1.34385,-1.6762 -2.82528,-2.80424 -3.20766,-2.4424 -0.0962,0.0909 -0.4718,0.19722 -0.8348,0.23611 -0.36296,0.0389 -0.8757,0.15208 -1.13937,0.25159 -0.26366,0.0995 -0.55888,0.0504 -0.65597,-0.10915 -0.0972,-0.15954 -0.35696,-0.22484 -0.57745,-0.14512 -0.22047,0.0797 -0.947,-0.21796 -1.61445,-0.66154 -1.03008,-0.68457 -1.52188,-0.81321 -3.25284,-0.85074 -1.1216,-0.0242 -2.10347,-0.0781 -2.18194,-0.11965 -0.0785,-0.0415 -1.09618,-0.13438 -2.26164,-0.20647 -1.16545,-0.072 -2.989921,-0.39444 -4.054425,-0.71628 -2.327651,-0.70374 -3.548793,-0.7521 -4.169105,-0.16514 -0.347033,0.3284 -0.461619,0.34483 -0.458931,0.0658 0.0021,-0.20454 -0.168984,-0.057 -0.379891,0.32787 -0.309964,0.56564 -0.574337,0.68635 -1.379167,0.62968 -2.322301,-0.1634 -2.981898,-0.0986 -3.497695,0.34342 -0.352466,0.30209 -0.542796,0.34658 -0.538146,0.1258 0.0041,-0.18785 -0.124243,-0.26462 -0.284875,-0.17056 -0.160627,0.0942 -0.299721,0.53593 -0.309111,0.98192 -0.0092,0.44599 -0.148472,0.88785 -0.309109,0.98192 -0.160632,0.0941 -0.297013,0.4071 -0.303084,0.69565 -0.0092,0.44396 -0.217811,0.51508 -1.355783,0.46241 -0.861264,-0.0398 -1.390863,0.0644 -1.473009,0.29003 -0.07056,0.19374 -0.251097,0.27602 -0.401171,0.18284 -0.150104,-0.093 -0.442948,-0.0357 -0.65075,0.12773 -0.273229,0.21485 -0.528631,0.18255 -0.9224,-0.11672 -0.299497,-0.22758 -0.72688,-0.41964 -0.949737,-0.42678 -0.781787,-0.025 -2.361359,-1.47594 -2.202701,-2.02328 0.08261,-0.28502 -0.02798,-0.66676 -0.24577,-0.84835 -0.217784,-0.1816 -0.393616,-0.53625 -0.390742,-0.78815 0.0028,-0.25188 -0.130824,-0.64929 -0.297103,-0.88311 -0.255187,-0.35885 -0.278611,-0.34812 -0.150316,0.0689 0.187933,0.61073 0.05282,0.62244 -0.520987,0.045 -0.244141,-0.24565 -0.437328,-0.75809 -0.42934,-1.13877 0.0081,-0.38069 -0.182147,-0.76836 -0.422565,-0.86148 -0.240435,-0.093 -0.559954,-0.40342 -0.710059,-0.6895 -0.389643,-0.74267 0.562262,-2.11614 1.380923,-1.99248 0.405837,0.0614 0.927933,-0.25673 1.588734,-0.96779 0.694743,-0.74757 1.45913,-1.1982 2.598816,-1.53197 2.221232,-0.65053 2.356215,-0.62812 2.133592,0.35476 -0.167485,0.73948 -0.09899,0.84824 0.635042,1.00829 0.452513,0.0986 1.045615,0.30059 1.317976,0.44872 0.935045,0.50858 1.93603,0.32749 2.300703,-0.41624 0.221346,-0.45141 0.578951,-0.69779 1.00662,-0.69355 0.672859,0.007 0.818221,-0.10463 1.87912,-1.43982 0.412975,-0.51974 0.84506,-0.73959 1.411552,-0.71824 0.475503,0.0178 1.080413,-0.21903 1.448596,-0.56741 0.831152,-0.78651 1.092044,-0.75437 2.098735,0.25859 0.577319,0.5809 0.786929,1.01887 0.661042,1.3812 -0.156275,0.44967 -0.04462,0.52509 0.732385,0.4947 1.01819,-0.0394 1.623437,-0.95058 1.195385,-1.79874 -0.13154,-0.26065 -0.314986,-0.9376 -0.407652,-1.50437 -0.145972,-0.89276 -0.0653,-1.1074 0.603554,-1.606 0.579987,-0.43233 0.901706,-0.50577 1.293288,-0.2951 0.286649,0.15424 0.854183,0.28373 1.261141,0.28778 0.83288,0.008 0.9438,0.3327 0.289616,0.84713 -0.241981,0.19026 -0.445059,0.58816 -0.451285,0.88412 -0.0065,0.296 -0.236843,0.86159 -0.512466,1.25692 -0.469917,0.67389 -0.471218,0.73554 -0.02073,0.98883 0.26418,0.14859 0.475155,0.5171 0.468803,0.8189 -0.0066,0.30179 0.130401,0.55017 0.303915,0.55186 0.213911,0.002 0.259566,-0.46354 0.141794,-1.44688 -0.162416,-1.35601 -0.136562,-1.44014 0.398603,-1.29755 0.46321,0.12345 0.64835,-0.0584 0.97135,-0.95439 0.59328,-1.64562 1.90447,-2.35935 2.75751,-1.50105 0.46223,0.46511 1.84511,0.29046 2.07496,-0.26203 0.0877,-0.21082 0.37269,-0.38312 0.63336,-0.38292 0.39991,-3.9e-4 0.40934,-0.0408 0.0605,-0.26225 -0.22739,-0.14445 -0.51672,-0.2021 -0.64304,-0.12816 -0.12629,0.074 -0.14821,-0.0612 -0.0487,-0.30049 0.0996,-0.23923 0.29245,-0.43386 0.42878,-0.4325 0.48446,0.005 2.32457,-1.81051 2.33496,-2.30354 0.0101,-0.48305 1.38299,-1.21312 1.69354,-0.90064 0.082,0.0824 -0.0348,0.15227 -0.25963,0.15494 -0.32885,0.005 -0.32136,0.0728 0.0383,0.35218 0.83065,0.64526 1.45487,1.87769 1.21203,2.393 -0.54606,1.15873 -0.49269,1.98362 0.15794,2.4413 0.89939,0.63262 0.98981,0.58378 0.88519,-0.47818 -0.0778,-0.79009 0.0742,-1.07323 0.98125,-1.82762 0.9431,-0.78434 1.22244,-0.87372 2.30117,-0.73632 0.79964,0.10183 1.76388,-0.0212 2.76518,-0.35289 1.40364,-0.46492 1.58282,-0.47022 2.05884,-0.0606 0.28676,0.24673 0.88144,0.49651 1.32153,0.55506 0.44005,0.0584 0.94033,0.29209 1.1117,0.51898 0.34905,0.4621 1.99126,0.57784 2.26664,0.15973 0.19188,-0.2913 1.6942,-0.0795 2.54588,0.35937 0.76585,0.3944 5.03764,0.37978 5.54473,-0.0189 0.57942,-0.45565 0.55467,-1.39071 -0.0486,-1.83592 -0.46315,-0.34182 -0.44181,-0.42157 0.31306,-1.169 0.44557,-0.44121 0.81305,-0.94136 0.81664,-1.11145 0.003,-0.17013 0.39404,-1.03505 0.86768,-1.92202 1.23484,-2.3125 0.94828,-4.33324 -0.61672,-4.34879 -0.68857,-0.007 -1.28762,0.70084 -1.30534,1.54209 -0.0102,0.45805 -1.9894,2.30855 -3.49568,3.26744 -1.40326,0.89328 -2.89218,1.11714 -4.20142,0.63169 -0.64554,-0.23934 -1.88563,-0.53022 -2.75575,-0.6464 -0.87016,-0.11619 -1.92158,-0.45261 -2.33647,-0.7476 -0.41492,-0.29497 -0.89656,-0.53773 -1.07036,-0.53946 -0.17381,-0.002 -0.31323,-0.13408 -0.30986,-0.29412 0.005,-0.23598 -1.10477,-0.23431 -1.7308,0.003 -0.0799,0.0301 -0.24239,0.039 -0.36096,0.0196 -0.11859,-0.0194 -0.23185,0.24933 -0.25169,0.5974 -0.0198,0.34806 -0.0935,0.48855 -0.16376,0.31223 -0.16425,-0.4125 -1.54834,0.14863 -1.56187,0.63324 -0.006,0.18111 -0.40025,0.40888 -0.87826,0.50609 -0.47798,0.0973 -0.87152,0.29339 -0.87453,0.43582 -0.003,0.14248 -0.20011,0.25707 -0.43804,0.25471 -0.49243,-0.005 -0.55537,-0.90966 -0.1166,-1.67585 0.16037,-0.27998 0.62111,-0.58608 1.02389,-0.68021 0.40284,-0.0941 0.73648,-0.36617 0.74149,-0.60445 0.005,-0.23832 -0.10859,-0.36441 -0.25235,-0.28019 -0.54732,0.32052 -0.52499,-0.65597 0.0278,-1.21705 l 0.57933,-0.58795 -0.85426,-0.0101 c -0.56936,-0.006 -1.15624,0.27729 -1.75983,0.84843 -0.88328,0.83581 -1.26238,0.78486 -0.52549,-0.0706 0.55368,-0.64282 2.35171,-1.54192 2.84321,-1.42176 0.39289,0.0961 1.47641,-1.66333 1.49243,-2.42333 0.003,-0.14823 0.26804,-0.40248 0.58877,-0.56497 0.3207,-0.16247 0.58661,-0.46067 0.59086,-0.66263 0.005,-0.20197 0.49993,-0.69914 1.10154,-1.10483 0.60155,-0.40571 0.99153,-0.73866 0.86658,-0.73991 -0.65128,-0.007 0.48124,-0.98642 1.17264,-1.01465 1.40778,-0.0574 3.95228,-1.05001 4.17295,-1.62777 0.11319,-0.29633 0.29345,-0.47458 0.4006,-0.39614 0.10713,0.0786 0.29041,-0.002 0.40732,-0.1768 0.30888,-0.46433 3.36497,-2.59991 3.7155,-2.59642 0.1636,0.002 0.75044,-0.53077 1.30409,-1.1831 0.96815,-1.14073 1.0682,-1.18541 2.61937,-1.17001 1.21073,0.0122 1.8429,-0.13957 2.53583,-0.608 0.50766,-0.34323 1.13012,-0.62197 1.38319,-0.61944 0.25307,0.002 0.46285,-0.12205 0.46609,-0.2768 0.0102,-0.41464 -1.23944,-0.35445 -1.88178,0.0905 -0.63032,0.43684 -1.27714,0.28056 -1.78421,-0.4311 -0.26802,-0.37615 -0.69815,-0.4702 -1.91457,-0.41851 -1.65414,0.07 -4.00762,-0.30082 -4.84005,-0.7632 -0.58797,-0.32649 -1.65439,-0.37496 -1.66165,-0.0754 -0.002,0.11603 -0.37767,0.62268 -0.83304,1.12585 l -0.82795,0.91485 -1.12817,-0.45354 c -0.62048,-0.24944 -1.57747,-0.69205 -2.12661,-0.98355 -0.61753,-0.32776 -1.38448,-0.49063 -2.01023,-0.42682 -0.92118,0.0939 -0.95308,0.0744 -0.35596,-0.21828 0.36067,-0.17681 0.66038,-0.53985 0.66597,-0.80675 0.0164,-0.75986 0.70948,-1.12807 2.57219,-1.36573 1.58361,-0.20207 3.9219,-1.05673 2.9876,-1.09199 -0.34778,-0.0139 -0.34631,-0.0842 0.0101,-0.50366 0.99767,-1.17249 1.10652,-1.77983 0.1256,-0.70087 -0.59339,0.6527 -1.17764,1.12547 -1.29826,1.05059 -0.12068,-0.0749 -0.62063,-0.0285 -1.11103,0.10309 -0.63364,0.16997 -1.04114,0.12833 -1.40823,-0.14398 -0.48284,-0.35817 -0.45956,-0.4068 0.35643,-0.74519 0.48015,-0.19909 0.89502,-0.58002 0.92195,-0.8465 0.0719,-0.71215 -0.88224,-0.16084 -1.54696,0.89376 -0.60847,0.96539 -0.82991,1.0244 -1.26547,0.3372 -0.29636,-0.46753 -0.30591,-0.46776 -0.16846,-0.004 0.17349,0.58543 -1.23429,1.94172 -1.88135,1.8125 -0.33661,-0.0672 -0.4213,-0.54099 -0.38714,-2.16541 0.0303,-1.44848 -0.0685,-2.11774 -0.32621,-2.20576 -0.22957,-0.0784 -0.2712,-0.24845 -0.10965,-0.44816 0.15604,-0.19293 0.11344,-0.60506 -0.10632,-1.02901 -0.41433,-0.79935 -0.47864,-0.56972 -0.43571,1.55523 0.0209,1.04145 -0.12219,1.595 -0.53815,2.07976 -0.77814,0.9068 -1.23402,0.50961 -1.20129,-1.04661 0.0353,-1.6749 -0.26515,-1.38166 -0.5452,0.53216 -0.19777,1.35156 -0.28629,1.49304 -0.9303,1.48666 -0.58017,-0.006 -0.77163,-0.21578 -1.03567,-1.13598 -0.49555,-1.72725 -0.40315,-3.07051 0.26642,-3.87338 0.82314,-0.98698 0.77025,-1.43985 -0.1047,-0.89654 -0.66645,0.41384 -0.72849,0.40502 -1.01671,-0.14435 -0.46742,-0.89092 -0.93724,-0.7284 -0.73702,0.25493 0.10457,0.51368 0.0553,0.84483 -0.12546,0.84304 -0.65554,-0.007 -1.75471,-0.69712 -1.77969,-1.11821 -0.0151,-0.24613 -0.1441,0.24453 -0.28778,1.09047 -0.18005,1.06011 -0.46096,1.69134 -0.90406,2.03133 -0.9326,0.71558 -1.15838,0.61211 -1.13457,-0.52004 0.028,-1.32605 -0.57468,-1.15224 -1.09379,0.31557 -0.46789,1.32276 -1.61241,2.35452 -2.601,2.34467 -0.39702,-0.004 -0.64323,-0.12661 -0.54706,-0.27262 0.0962,-0.14601 -0.29342,-0.35618 -0.86574,-0.46704 -0.982745,-0.19039 -1.033163,-0.25424 -0.907114,-1.14895 0.07343,-0.52103 0.09929,-0.94768 0.05754,-0.9481 -0.0417,-1.3e-4 -0.395757,0.44195 -0.786734,0.98306 -0.639951,0.88572 -0.683705,1.11112 -0.43886,2.26048 0.253244,1.18891 0.219829,1.32602 -0.486281,1.99419 l -0.758262,0.71748 -2.675954,-0.33608 c -2.142157,-0.26908 -2.76677,-0.26383 -3.131211,0.0263 -0.607522,0.48369 -3.360989,1.27447 -4.401518,1.26412 -0.529937,-0.005 -0.835139,0.1381 -0.840551,0.39482 -0.0045,0.2217 -0.237126,0.47438 -0.516604,0.5615 -0.279484,0.0871 -0.711307,0.56081 -0.95962,1.05264 -0.544443,1.07829 -1.367639,1.33861 -4.382837,1.38603 -2.351096,0.0369 -3.185207,-0.30785 -2.92407,-1.20876 0.193356,-0.66708 -1.999934,-2.58339 -4.280667,-3.74008 -1.401315,-0.71069 -1.920104,-0.83313 -3.013836,-0.71135 -0.726626,0.081 -1.776295,0.1867 -2.332593,0.23514 -0.55629,0.0485 -1.662214,0.17031 -2.457573,0.27085 -1.23773,0.15651 -1.520193,0.10021 -1.959957,-0.39006 -0.497175,-0.55438 -0.496676,-0.5781 0.01537,-0.73343 0.291082,-0.0884 0.847298,-0.60078 1.236036,-1.13891 0.388717,-0.5381 0.935224,-0.97607 1.21445,-0.97331 0.968157,0.0103 1.771036,-0.90985 1.950455,-2.23368 0.141094,-1.04112 0.562504,-1.87172 1.833689,-3.6143 0.191047,-0.26192 3.256672,1.48173 4.232811,2.40752 0.578635,0.54875 1.104704,0.99831 1.169034,0.99893 0.06434,9.8e-4 0.434758,0.32095 0.823153,0.71176 0.538373,0.5417 1.006486,0.71356 1.969734,0.72312 0.960837,0.0103 1.292631,0.13086 1.385058,0.50627 0.09998,0.40608 0.129629,0.39134 0.167129,-0.083 0.0265,-0.33519 -0.471183,-1.09782 -1.188308,-1.82092 -1.866713,-1.88225 -3.174997,-4.66556 -1.780367,-3.78759 0.206148,0.12978 0.602673,0.20176 0.881214,0.15999 0.278512,-0.0418 0.50337,0.067 0.499694,0.24198 -0.0042,0.18896 0.226667,0.24852 0.568281,0.14683 0.383225,-0.11413 0.996828,0.12027 1.840035,0.70288 0.695798,0.48074 1.460073,0.87604 1.698379,0.87839 0.238322,0.002 0.510353,0.25836 0.604535,0.56886 0.09417,0.31051 0.292267,0.56575 0.440188,0.56723 0.368269,0.004 0.344609,-0.17012 -0.158686,-1.16407 -0.273973,-0.54108 -0.587744,-0.80189 -0.850496,-0.70685 -0.228999,0.0827 -0.41398,0.0376 -0.411082,-0.10041 0.01167,-0.55526 -1.471859,-1.96793 -2.654001,-2.52717 -1.570857,-0.74319 -2.305442,-1.67284 -2.797084,-3.53992 -0.629117,-2.38938 -0.698759,-3.50213 -0.241602,-3.8616 0.225043,-0.17702 0.383975,-0.46819 0.353138,-0.64715 -0.03084,-0.17891 0.301114,-0.33455 0.737635,-0.34586 0.842835,-0.0218 1.019673,0.39821 0.412108,0.97879 -0.235562,0.22511 -0.06651,0.20443 0.46979,-0.0574 1.018728,-0.49751 1.522509,-0.33972 1.73024,0.54192 0.109341,0.46403 0.396783,0.69552 0.947475,0.76297 0.564813,0.0692 0.763677,0.23589 0.696557,0.5839 -0.06781,0.3516 0.03992,0.43867 0.387278,0.31306 0.390376,-0.14115 0.440059,-0.0556 0.263203,0.4534 -0.200016,0.57564 -0.165065,0.60056 0.424006,0.30215 0.393538,-0.19939 0.743209,-0.22346 0.903439,-0.0624 0.2967,0.29851 0.0067,1.19886 -0.384874,1.19497 -0.141625,-6.5e-4 -0.263029,0.25815 -0.269727,0.57678 -0.0067,0.32079 0.120292,0.50176 0.284625,0.40552 0.163261,-0.0955 0.233427,-0.27797 0.155928,-0.4053 -0.246579,-0.40516 0.559298,-0.76823 1.285807,-0.5793 l 0.700793,0.18223 -0.699862,0.61736 c -0.926889,0.81762 -0.585463,0.78644 0.742751,-0.068 1.080666,-0.69502 1.747667,-0.67958 1.450983,0.0337 -0.110918,0.26662 0.03771,0.36857 0.478217,0.32807 0.458086,-0.0422 0.624345,0.0834 0.586848,0.44308 -0.03702,0.3552 0.04869,0.42242 0.293296,0.23009 0.190071,-0.14946 0.514977,-0.16664 0.722009,-0.0383 0.302587,0.18786 0.269478,0.38701 -0.168947,1.01574 l -0.545313,0.78207 0.797311,-0.4951 c 0.795873,-0.4942 0.797287,-0.49381 0.782335,0.21719 -0.0092,0.44953 -0.312031,0.92236 -0.820203,1.28169 -0.442874,0.31318 -0.658991,0.57489 -0.480228,0.58156 0.178727,0.007 0.490545,-0.17614 0.692893,-0.40633 0.448832,-0.51055 1.16526,-0.54341 1.154921,-0.0532 -0.008,0.3742 -0.919402,1.33903 -1.917671,2.02982 -0.5419,0.37497 -0.523035,0.38409 0.253768,0.12252 1.0203,-0.34361 1.230438,-0.20173 0.593742,0.40077 -0.310973,0.29422 -0.354246,0.45211 -0.124566,0.4544 0.193573,0.002 0.80477,-0.43759 1.358223,-0.97664 0.553437,-0.53907 1.116775,-0.91152 1.251869,-0.82768 0.135082,0.0838 0.297077,-0.13381 0.35999,-0.48374 0.10621,-0.59087 0.149096,-0.57032 0.601395,0.28796 0.422838,0.80244 0.565127,0.8846 1.079963,0.62378 0.553275,-0.2803 0.563629,-0.34582 0.154905,-0.9783 -0.606596,-0.9386 -0.576917,-0.98043 0.686545,-0.96786 0.615027,0.006 1.27052,-0.16209 1.456608,-0.37376 0.472539,-0.53748 2.062895,-0.78729 2.530399,-0.39745 0.410692,0.34245 0.520737,0.0421 0.181017,-0.49407 -0.201909,-0.31867 -0.492393,-0.31872 -3.401842,-10e-5 -0.804394,0.0881 -1.806235,0.0282 -2.226311,-0.13312 -0.827422,-0.31763 -1.92814,-1.45381 -2.235432,-2.30744 -0.158983,-0.44164 -0.02012,-0.56276 0.809369,-0.70578 0.681286,-0.11746 1.214252,-0.0325 1.667621,0.26582 0.366482,0.24115 1.137743,0.63701 1.713911,0.87969 1.004869,0.42324 1.036153,0.41949 0.767685,-0.0922 -0.153915,-0.29336 -0.537855,-0.61638 -0.853195,-0.71782 -0.83326,-0.26804 -0.69989,-0.55019 0.444125,-0.93952 0.968081,-0.32945 1.844542,-0.2223 3.388682,0.41426 0.373179,0.15386 0.503321,0.0697 0.511735,-0.33024 0.0065,-0.29511 -0.146551,-0.69538 -0.339443,-0.88949 -0.43058,-0.43325 0.163044,-0.8762 1.169771,-0.87289 0.754148,0.002 0.811578,-0.1626 0.252219,-0.72546 -0.541833,-0.54518 -1.092173,-0.51705 -1.930867,0.0988 -0.883673,0.64881 -2.87581,0.93726 -6.203014,0.89809 -2.0846,-0.0246 -2.850086,-0.15344 -3.797108,-0.63926 -0.652387,-0.33469 -1.366839,-0.61032 -1.587695,-0.61252 -0.595036,-0.006 -3.03943,-3.28586 -3.342617,-4.48522 -0.144363,-0.57112 -0.273138,-1.41575 -0.286189,-1.87696 -0.02038,-0.72161 0.09743,-0.85932 0.844789,-0.98737 0.799491,-0.137 0.817227,-0.16315 0.22327,-0.32915 -0.354877,-0.0992 -0.63967,-0.35045 -0.632859,-0.55833 0.01029,-0.31432 0.05214,-0.31435 0.248321,-4.9e-4 0.189967,0.30413 0.271925,0.29123 0.420615,-0.066 0.273024,-0.65639 1.772542,-0.53492 3.006495,0.24345 0.584028,0.36846 1.209651,0.62243 1.39024,0.56444 0.180611,-0.0579 0.400863,0.20223 0.489486,0.57831 0.08863,0.3761 0.421217,0.75311 0.739128,0.83785 0.386186,0.1029 0.516401,0.30216 0.392358,0.60036 -0.289146,0.69507 0.279099,0.52949 0.61407,-0.17893 0.199503,-0.42197 0.553754,-0.63194 1.071918,-0.63533 0.425656,-0.003 0.716695,0.0818 0.646736,0.188 -0.06996,0.10621 0.0652,0.26763 0.300338,0.35874 0.23515,0.091 0.423992,0.33419 0.419655,0.54022 -0.0044,0.20602 0.140245,0.52363 0.321271,0.7058 0.250539,0.25207 0.418583,0.21679 0.703654,-0.1478 0.353097,-0.45159 0.385102,-0.45073 0.5598,0.0159 0.239838,0.6399 1.192149,0.64935 1.379996,0.0135 0.122912,-0.41587 0.175007,-0.39381 0.340227,0.1441 0.215502,0.7016 0.573648,0.82969 0.809402,0.28946 0.09652,-0.22118 0.157675,-0.17984 0.165907,0.11226 0.01359,0.48328 0.75423,0.94092 1.375061,0.84974 0.463365,-0.0681 0.455368,0.31187 -0.0172,0.81256 -0.305524,0.32375 -0.293422,0.33782 0.07037,0.0821 0.241548,-0.16977 0.933382,-0.39351 1.537411,-0.49727 1.42087,-0.244 1.24316,-0.75754 -0.360447,-1.04155 -1.353978,-0.23981 -3.012041,-0.93958 -3.283646,-1.38584 -0.09223,-0.15156 -0.603656,-0.27992 -1.136485,-0.2852 -1.339408,-0.013 -1.875876,-0.26891 -1.862863,-0.88751 0.0069,-0.33593 -0.24948,-0.58288 -0.70682,-0.68048 -0.394861,-0.0842 -1.044284,-0.22301 -1.443136,-0.3083 -0.398877,-0.0853 -0.943919,-0.40033 -1.21123,-0.70007 -0.267295,-0.29972 -1.334041,-1.39655 -2.370546,-2.43734 -1.036487,-1.04083 -2.032564,-2.26083 -2.213492,-2.71108 -0.18094,-0.45029 -0.42198,-0.8196 -0.53565,-0.82073 -0.113677,-8.9e-4 -0.214492,-0.44781 -0.224006,-0.99263 -0.01576,-0.90256 0.03262,-0.9637 0.544649,-0.68824 0.3091,0.1663 0.559406,0.4245 0.556271,0.57382 -0.0031,0.14929 0.146684,0.27296 0.332959,0.27482 0.186268,0.002 0.04167,-0.31494 -0.321252,-0.70399 -0.567282,-0.60802 -0.611539,-0.80602 -0.315267,-1.41024 0.392046,-0.79954 2.014253,-1.05689 1.685853,-0.26745 -0.0962,0.23123 -0.04917,0.42166 0.104463,0.42317 0.153638,0.002 0.282007,-0.12383 0.285252,-0.27857 0.01281,-0.60773 2.010395,0.11559 2.597531,0.94052 0.0884,0.12415 0.432444,0.27973 0.764565,0.34571 0.332135,0.066 0.933472,0.33679 1.336319,0.6019 0.463556,0.30502 0.734916,0.36317 0.739222,0.15832 0.0047,-0.23642 0.160508,-0.24093 0.577302,-0.0164 0.478021,0.25718 0.572294,0.21971 0.581768,-0.23126 0.01164,-0.5536 -0.423625,-1.05693 -1.061847,-1.22786 -0.506895,-0.13575 -4.029893,-3.54852 -4.02259,-3.89674 0.0066,-0.31009 1.681902,-0.26853 2.192735,0.0545 0.209335,0.13232 0.274023,-0.0341 0.193162,-0.4973 -0.0899,-0.51507 0.0034,-0.69501 0.359012,-0.69146 0.710092,0.008 2.07099,0.77935 2.256968,1.28086 0.08905,0.2401 0.486923,0.58568 0.884173,0.76793 0.397243,0.18224 0.718874,0.49241 0.714736,0.68925 -0.0043,0.19685 0.249569,0.44063 0.563798,0.54171 0.314239,0.10112 0.754668,0.36828 0.978721,0.59372 0.224061,0.22542 0.481517,0.29736 0.572108,0.15981 0.09064,-0.13756 -0.544269,-0.79948 -1.410785,-1.47099 -0.866573,-0.67146 -1.757979,-1.58114 -1.980928,-2.0215 -0.230984,-0.45615 -0.643074,-0.80297 -0.957794,-0.80611 -0.30378,-0.003 -0.629891,-0.13291 -0.724682,-0.28862 -0.09478,-0.15573 -0.564799,-0.28705 -1.044506,-0.2918 -1.112564,-0.0108 -0.948903,-0.6433 0.227582,-0.87908 0.464826,-0.093 0.664259,-0.18614 0.443213,-0.20664 -0.270145,-0.025 -0.167986,-0.24259 0.311589,-0.66343 0.392411,-0.34435 0.84019,-0.67563 0.995091,-0.73608 0.154874,-0.0606 0.423265,-0.29249 0.596407,-0.51553 0.270638,-0.34863 0.686457,-0.2923 2.964583,0.40166 1.840287,0.56057 2.74215,0.98316 2.95213,1.38339 0.35369,0.67414 1.36527,1.57227 1.7908,1.58994 0.44811,0.0186 1.30741,1.13668 1.10722,1.44063 -0.0966,0.14659 -0.0381,0.26789 0.12985,0.26957 0.50329,0.005 0.33505,0.6547 -0.45152,1.74332 -0.40805,0.56477 -0.63601,1.09257 -0.50657,1.17294 0.3097,0.19224 2.07688,-0.98456 2.09192,-1.39304 0.006,-0.17447 0.2163,-0.47815 0.46645,-0.67484 0.38351,-0.3016 0.47763,-0.26497 0.60043,0.23343 0.08,0.32514 0.32606,0.66104 0.54662,0.74647 0.46906,0.18169 0.51618,2.57359 0.0559,2.84306 -0.53522,0.31344 -0.31072,0.63013 0.45208,0.63769 0.41457,0.005 0.86318,0.18274 0.99684,0.3969 0.13367,0.21414 0.25177,0.2628 0.26243,0.10814 0.0108,-0.15469 0.34458,-0.50554 0.74197,-0.77968 0.70324,-0.48513 0.72224,-0.48327 0.71065,0.0686 -0.008,0.38846 -0.14712,0.51471 -0.44113,0.4008 -0.27566,-0.1068 -0.43273,0.002 -0.43906,0.30249 -0.006,0.2723 0.12625,0.38904 0.31486,0.2786 0.17861,-0.10453 0.42348,-0.0281 0.54421,0.1705 0.28129,0.46226 1.25677,0.12709 1.0729,-0.36861 -0.0757,-0.20403 0.11224,-0.51876 0.41751,-0.6994 0.30525,-0.18067 0.55785,-0.46305 0.56132,-0.62755 0.003,-0.16449 0.20495,-0.48706 0.44777,-0.71682 0.39243,-0.37133 0.4395,-0.32395 0.4237,0.42637 -0.0166,0.78413 0.57983,1.7345 1.09153,1.73959 0.25435,0.003 0.98794,1.44765 0.90142,1.77567 -0.0316,0.12006 0.11503,0.28516 0.32591,0.36688 0.31785,0.12315 0.31336,0.55436 -0.0259,2.5188 -0.22532,1.30363 -0.63325,2.78226 -0.90647,3.28584 -0.27327,0.50359 -0.55631,1.54823 -0.62905,2.32142 l -0.13221,1.40581 0.47607,-1.4024 c 0.57875,-1.70488 0.81736,-2.30157 1.30605,-3.26598 0.20691,-0.40835 0.3223,-0.91103 0.25647,-1.11707 -0.0658,-0.20606 0.1225,-0.6205 0.41851,-0.92094 0.34863,-0.3538 0.54728,-0.97369 0.56379,-1.75936 0.0308,-1.46684 0.44318,-1.56963 0.87082,-0.21711 0.17228,0.54489 0.41917,0.92864 0.54864,0.85282 0.41886,-0.24527 0.9298,0.68083 0.74371,1.34788 -0.0995,0.35649 -0.064,1.02334 0.0788,1.4819 0.24524,0.78757 0.25247,0.77644 0.13034,-0.20089 -0.0715,-0.57291 0.005,-1.11334 0.17175,-1.21094 0.39842,-0.23334 0.46135,0.83142 0.14946,2.52894 -0.16902,0.91981 -1.88464,4.17113 -2.42527,4.59624 -0.27561,0.2167 -0.65061,0.65623 -0.8333,0.97671 -0.30965,0.54315 -0.29415,0.55499 0.22842,0.17458 0.93174,-0.67828 1.59024,-1.36031 1.59639,-1.65342 0.003,-0.15242 0.2935,-0.46815 0.64513,-0.70156 0.67265,-0.44657 1.73309,-2.68253 1.75489,-3.70026 0.008,-0.32923 0.21244,-0.75557 0.45642,-0.94742 0.28291,-0.22245 0.34999,-0.46365 0.18524,-0.66581 -0.14211,-0.17438 -0.33259,-0.95098 -0.4233,-1.72578 -0.2627,-2.2435 -0.62888,-3.15908 -1.60965,-4.02453 -0.71313,-0.62931 -0.91255,-1.03343 -0.89612,-1.81573 0.0253,-1.19986 -0.73377,-2.4939 -1.46699,-2.5012 -0.28899,-0.003 -0.75229,-0.25778 -1.02956,-0.56645 -0.2773,-0.30867 -0.59312,-0.50913 -0.70186,-0.44548 -0.10873,0.0636 -0.63617,-0.26424 -1.17206,-0.72876 -0.53591,-0.46446 -1.29732,-0.91824 -1.69204,-1.0083 -1.24536,-0.28424 -2.29179,-0.7551 -2.28604,-1.02866 0.003,-0.14513 -0.11094,-0.19561 -0.25341,-0.11219 -0.14242,0.0834 -0.41537,-0.0385 -0.60651,-0.27086 -0.1912,-0.23236 -0.52638,-0.42428 -0.74488,-0.42645 -0.2185,-0.002 -0.39456,-0.13327 -0.39124,-0.29132 0.003,-0.15808 -0.31535,-0.43486 -0.70819,-0.61507 -0.39284,-0.1802 -0.71085,-0.49096 -0.70663,-0.69056 0.005,-0.1996 -0.15248,-0.46575 -0.34813,-0.59149 -0.93304,-0.5995 -1.13965,-1.19076 -0.73332,-2.09878 0.29276,-0.65423 0.79562,-1.04628 1.97241,-1.53786 2.37607,-0.99258 3.87041,-1.09902 5.06009,-0.3605 0.96636,0.59992 2.6254,0.81174 3.25226,0.41529 0.17701,-0.11197 0.39742,-0.56021 0.48975,-0.99614 0.13782,-0.65071 0.0429,-0.84054 -0.53041,-1.06058 -0.38405,-0.14745 -0.98947,-0.27096 -1.34535,-0.27448 -0.35589,-0.004 -0.89019,-0.18494 -1.1873,-0.40312 -0.48286,-0.35461 -0.49737,-0.4816 -0.13681,-1.19741 0.5605,-1.1127 0.93143,-2.62473 0.64459,-2.6276 -0.13121,-9.7e-4 -0.3186,0.22782 -0.41634,0.50918 -0.30918,0.88977 -1.80456,2.01652 -2.88912,2.17691 l -1.04553,0.15464 0.19813,-1.05564 c 0.15432,-0.82226 0.10987,-1.02802 -0.20115,-0.93062 -0.21961,0.0688 -0.47938,0.43143 -0.57728,0.80593 -0.22326,0.85403 -2.11903,1.87451 -3.51381,1.89147 -0.66892,0.009 -1.36085,-0.23566 -1.98838,-0.70063 -0.52936,-0.3922 -1.09938,-0.71901 -1.26671,-0.72626 -0.53259,-0.0229 -1.811697,-1.25346 -1.900029,-1.82781 -0.115318,-0.74935 0.713585,-0.87151 1.939889,-0.2859 0.9025,0.431 1.03169,0.43166 1.71302,0.009 1.05435,-0.65471 0.93395,-1.32456 -0.51105,-2.84271 -1.68751,-1.773 -1.7265,-3.12818 -0.0615,-2.14015 0.63516,0.37693 0.88942,0.40848 1.168,0.1449 0.19584,-0.18532 0.70882,-0.33341 1.13998,-0.32912 1.31822,0.0127 1.7341,-0.24221 1.40775,-0.86425 -0.15679,-0.29881 -0.19854,-0.67474 -0.0928,-0.83532 0.30516,-0.46326 1.92718,-0.18788 2.8591,0.48544 0.46885,0.33871 1.33582,0.77631 1.92666,0.97247 0.74667,0.24789 1.07074,0.52153 1.06282,0.89751 -0.0182,0.82654 1.17541,0.69049 2.03196,-0.2318 0.40137,-0.43216 0.73624,-1.09197 0.7441,-1.46622 0.0236,-1.10454 0.82924,-0.94035 2.28892,0.46631 1.49538,1.44104 2.15665,1.40704 1.65659,-0.0852 -0.36659,-1.0941 -0.14414,-1.26841 0.85905,-0.6731 0.56746,0.33677 0.85857,0.78386 0.96336,1.47965 0.25802,1.71285 0.87775,2.75235 1.99722,3.34996 0.58826,0.31404 1.03022,0.72164 0.98214,0.9058 -0.0482,0.18415 0.1704,0.40355 0.48558,0.48753 0.37764,0.10062 0.54718,0.35793 0.49722,0.75461 -0.0594,0.47132 0.0652,0.58877 0.57446,0.54134 0.78965,-0.0735 0.80233,0.14167 0.0619,1.05023 -0.52306,0.64186 -0.53168,0.73458 -0.11215,1.20159 0.34849,0.38795 0.37376,0.58251 0.10828,0.83367 -0.35272,0.3338 -0.5133,1.62051 -0.2026,1.62359 0.0938,7.8e-4 0.51685,-0.25625 0.9398,-0.57158 0.67852,-0.50575 0.80594,-0.52222 1.08251,-0.13977 0.23861,0.32999 0.39538,0.35602 0.65642,0.10903 0.18861,-0.17849 0.3464,-0.48912 0.35061,-0.6903 0.005,-0.20118 0.13748,-0.36447 0.2961,-0.36289 0.15862,0.002 0.2834,0.24131 0.27725,0.53276 -0.0122,0.57689 0.71772,0.87418 2.19728,0.8951 0.69764,0.0101 0.96314,0.16527 1.10697,0.64803 0.10399,0.3493 0.2893,0.70037 0.41169,0.78016 0.12238,0.0799 0.25939,0.52959 0.30446,0.99962 0.13742,1.4327 1.03691,2.28158 2.86088,2.69988 1.28497,0.29466 1.56527,0.45179 1.31461,0.73691 -0.37777,0.4297 -0.12881,0.95174 0.45674,0.95756 0.53512,0.005 0.51711,0.38909 -0.068,1.44514 -0.43074,0.77748 -0.43141,0.87942 -0.009,1.19032 0.37185,0.27308 0.40113,0.49027 0.14869,1.1025 -0.36522,0.88576 0.0519,1.03783 0.99481,0.36223 0.78338,-0.56159 1.07907,-0.52096 0.72378,0.0994 -0.38778,0.67704 -0.10843,2.57677 0.40823,2.7769 0.22081,0.0855 0.57047,-0.0623 0.77706,-0.32829 0.34795,-0.44824 0.40874,-0.43253 0.82615,0.21336 0.41934,0.64891 0.41107,0.7581 -0.11976,1.57677 -0.69886,1.07784 -0.28066,1.16875 0.58754,0.12773 0.41651,-0.49945 0.57015,-0.95283 0.45143,-1.33228 -0.0989,-0.31636 -0.19248,-0.87677 -0.20777,-1.24539 -0.0239,-0.56939 0.12433,-0.68335 0.98367,-0.75771 0.90904,-0.0787 1.06039,0.0132 1.4953,0.90742 0.66241,1.36204 0.60846,1.54839 -0.38884,1.34304 -0.54889,-0.11301 -0.86404,-0.0626 -0.86829,0.13911 -0.003,0.17411 0.12311,0.31782 0.28173,0.3194 0.15863,0.002 0.28472,0.1773 0.28027,0.39048 -0.0187,0.86742 0.79394,1.14556 2.29703,0.78655 1.36625,-0.32631 1.45848,-0.30964 2.43762,0.44045 1.33541,1.023 1.19635,1.62969 -0.39197,1.71035 -0.67073,0.0341 -1.61918,0.25755 -2.10767,0.49658 -0.48845,0.23906 -1.04664,0.40541 -1.24034,0.36966 -0.4557,-0.0841 -2.81969,0.61242 -2.81848,0.8304 0.004,0.71064 1.05584,0.96038 1.7506,0.4156 0.2235,-0.17528 0.73088,-0.31859 1.1275,-0.31848 0.39665,-3.3e-4 1.20909,-0.0555 1.80548,-0.12423 1.36425,-0.15659 1.50605,0.55829 0.1959,0.98778 -0.47904,0.15705 -0.80501,0.39404 -0.72429,0.52665 0.1522,0.25006 1.64091,0.17046 2.12618,-0.11376 0.15219,-0.0891 0.50032,0.063 0.77365,0.33797 0.2733,0.275 0.57178,0.46851 0.66326,0.42999 0.0915,-0.0386 0.26427,0.33172 0.38403,0.82269 0.17268,0.70801 0.0883,1.05767 -0.40806,1.69015 -0.54166,0.69026 -0.56588,0.82069 -0.18012,0.97013 0.58903,0.22817 0.40629,1.58466 -0.41151,3.05532 -0.80508,1.44779 -1.76916,2.26594 -2.93983,2.49485 -0.95674,0.1871 -1.44782,0.59057 -1.12013,0.92029 0.10024,0.10093 0.42242,0.0414 0.71587,-0.13221 0.44791,-0.26503 0.58246,-0.20552 0.83827,0.37079 0.17637,0.3973 0.55035,0.6889 0.88773,0.69224 0.76459,0.008 0.73081,0.40582 -0.0876,1.03405 -0.36283,0.2785 -0.99433,0.988 -1.40334,1.57664 l -0.74366,1.07029 -1.58238,-0.19584 c -0.87033,-0.10773 -1.74714,-0.21091 -1.94845,-0.22933 -0.20134,-0.0182 -0.62454,-0.45815 -0.94046,-0.97725 -0.70821,-1.16363 -0.95858,-1.18329 -1.36708,-0.10746 -0.17564,0.46262 -0.47604,0.83954 -0.66748,0.83765 -0.22293,-0.002 -0.17793,0.18595 0.12512,0.5234 0.27547,0.30664 0.39041,0.72606 0.27501,1.00346 -0.12807,0.30786 0.0352,0.69579 0.4626,1.09569 0.54012,0.50598 1.03191,0.62848 2.69119,0.67038 2.18199,0.0552 3.89173,0.69479 3.87585,1.45012 -0.005,0.23832 -0.15477,0.68767 -0.33285,0.99855 -0.44771,0.78177 -0.11983,0.99568 0.59155,0.38594 0.48819,-0.41837 0.71412,-0.4494 1.30365,-0.17896 0.65893,0.30227 0.71,0.47297 0.67266,2.24761 -0.0348,1.65546 -0.16506,2.10514 -0.94401,3.25832 -0.497,0.73585 -1.58131,1.95296 -2.40958,2.70471 -0.82828,0.75173 -1.44014,1.36749 -1.35967,1.36825 0.21094,0.002 2.84756,-1.34077 3.55634,-1.81131 0.63379,-0.42073 1.65272,-0.53492 1.5873,-0.17786 -0.11864,0.64782 0.0949,1.16267 0.80952,1.9507 0.52245,0.57618 0.801,1.20781 0.80685,1.82961 0.0444,4.69806 0.1264,7.20902 0.24707,7.5655 0.0789,0.23294 0.29608,0.86832 0.48274,1.41192 0.18665,0.54358 0.36322,1.33052 0.39241,1.74879 0.0286,0.41824 0.23191,0.97871 0.45063,1.24549 0.21865,0.26676 0.40222,0.7498 0.40798,1.07339 0.0418,2.35909 0.0914,2.71669 0.35599,2.56175 0.4343,-0.25434 0.38309,-1.70652 -0.14395,-4.08205 -0.48435,-2.18328 -0.43199,-2.63957 0.54312,-4.73519 0.32209,-0.69227 0.39404,-1.44972 0.27539,-2.90009 -0.28027,-3.42526 -0.21063,-5.84221 0.17224,-5.98065 0.48811,-0.17649 0.92117,0.42802 1.11927,1.5625 0.0922,0.52791 0.45278,1.48893 0.80128,2.13566 0.34852,0.64669 0.55498,1.25029 0.45874,1.3413 -0.0963,0.0909 -0.0234,0.167 0.16157,0.16883 0.18505,0.002 0.33114,0.25656 0.32464,0.56608 -0.008,0.37517 0.18046,0.56464 0.56495,0.56847 0.67931,0.007 0.73092,-0.43978 0.21861,-1.89174 -1.26028,-3.57153 -1.45294,-6.99055 -0.49406,-8.76714 0.27964,-0.51814 0.60858,-1.57898 0.731,-2.35748 0.21083,-1.34129 0.38402,-1.56645 3.30424,-4.29678 1.69496,-1.58472 3.24969,-2.87967 3.45497,-2.87763 0.20528,0.002 0.42779,-0.14611 0.49443,-0.32924 0.0802,-0.22077 0.30606,-0.14697 0.66963,0.21885 0.45838,0.46124 0.53892,0.94449 0.49028,2.94223 l -0.0581,2.39036 2.17305,-0.13866 c 2.68011,-0.17101 5.11216,-0.90756 5.64424,-1.70942 0.67974,-1.02452 0.8299,-2.06548 0.36532,-2.5329 -0.56926,-0.57291 -0.51194,-1.64997 0.13135,-2.46367 0.96443,-1.22006 1.26078,-2.05447 1.18376,-3.33293 -0.0423,-0.69691 -0.14503,-1.45778 -0.22867,-1.69079 -0.36024,-1.00185 -0.50587,-2.21505 -0.43459,-3.61915 0.0448,-0.88228 -0.0852,-1.75556 -0.31418,-2.1138 -0.2148,-0.33572 -0.45979,-0.92769 -0.5444,-1.3155 -0.0847,-0.38778 -0.29051,-1.21299 -0.45747,-1.8338 -0.16702,-0.62078 -0.27707,-1.67763 -0.24457,-2.34855 0.0325,-0.67089 -0.0563,-1.36831 -0.19719,-1.54977 -0.50309,-0.64754 -0.59591,-1.89611 -0.23644,-3.1805 0.27937,-0.99833 0.288,-1.42971 0.037,-1.83786 -0.40106,-0.65213 0.16612,-0.95439 1.26354,-0.67334 0.52688,0.13494 0.78656,0.0384 1.0271,-0.38156 0.24733,-0.4317 0.61529,-0.55926 1.58558,-0.54961 1.04303,0.0104 1.36622,-0.12011 1.85165,-0.7478 0.54344,-0.70264 0.64294,-0.73086 1.31051,-0.37172 0.39728,0.21376 0.91252,0.31984 1.14507,0.23581 0.30131,-0.10892 0.37901,-0.003 0.27075,0.37152 -0.0939,0.32396 0.12891,0.80711 0.58287,1.26395 0.40428,0.40673 0.73041,0.96169 0.72468,1.23319 -0.006,0.27152 0.14853,0.65356 0.3427,0.84895 0.19425,0.19544 0.35005,0.57056 0.34637,0.83367 -0.009,0.69826 0.69424,2.31454 1.00958,2.31768 0.14868,0.002 0.19689,0.11424 0.10707,0.25061 -0.0899,0.13635 0.025,0.40513 0.25571,0.59727 0.23036,0.19215 0.34548,0.46092 0.25568,0.59729 -0.0898,0.13633 -0.021,0.24932 0.153,0.25104 0.17402,0.002 0.28526,0.28779 0.24728,0.63566 -0.12528,1.14763 -0.006,1.61812 0.41304,1.62227 0.42106,0.005 0.54632,0.28671 0.84604,1.9078 0.15211,0.82301 0.24795,0.89857 0.94333,0.74372 0.42575,-0.0949 0.67671,-0.073 0.55758,0.0483 -0.30473,0.31057 0.64006,0.96873 1.41704,0.98715 0.36563,0.009 0.64502,0.19076 0.64028,0.41736 -0.005,0.22107 0.15017,0.57088 0.3442,0.77733 0.19399,0.20646 0.38561,0.75564 0.42586,1.22038 0.0403,0.46476 0.25169,1.2145 0.46985,1.66608 0.21805,0.45162 0.38502,1.36397 0.37103,2.02743 -0.0142,0.66347 0.10271,1.28584 0.25938,1.38304 0.15665,0.0973 0.28785,0.0293 0.29166,-0.15129 0.004,-0.18046 0.19634,-0.25472 0.42778,-0.16504 0.2315,0.0896 0.62385,-0.0292 0.87176,-0.26352 0.40478,-0.3831 0.52981,-0.34367 1.22606,0.38683 0.42652,0.44736 0.90825,1.05361 1.07053,1.34723 0.19006,0.34393 0.4315,0.45399 0.67843,0.30942 0.44232,-0.25907 2.11246,-3.5655 2.12613,-4.20896 0.005,-0.23762 0.16662,-0.66887 0.35917,-0.95833 0.27686,-0.41593 0.25442,-0.78606 -0.10698,-1.76552 -0.2516,-0.68162 -0.45359,-1.41502 -0.44909,-1.6298 0.005,-0.21476 -0.16386,-0.59211 -0.37419,-0.83856 -0.21034,-0.24647 -0.50933,-0.82928 -0.66448,-1.29515 -0.15494,-0.46591 -0.36934,-1.06959 -0.47609,-1.3415 -0.14841,-0.37785 -0.051,-0.49302 0.41347,-0.4884 0.37746,0.004 0.62041,-0.18036 0.64138,-0.48611 0.0522,-0.7591 0.2421,-1.81887 0.47841,-2.66825 0.14285,-0.51364 0.0638,-1.00462 -0.23707,-1.46993 -0.24833,-0.38424 -0.44604,-0.95812 -0.43936,-1.27525 0.0184,-0.83974 1.7448,-2.22042 2.78723,-2.22808 0.47586,-0.004 1.38708,-0.11859 2.02456,-0.25579 0.8404,-0.18087 1.31562,-0.14914 1.72832,0.1153 0.31308,0.2006 0.79763,0.44966 1.07677,0.55346 0.4243,0.15777 0.46191,0.10171 0.22919,-0.34177 -0.22153,-0.42223 -0.14396,-0.61402 0.38061,-0.93969 0.46902,-0.29126 0.7742,-0.90347 1.05897,-2.12442 0.28772,-1.23347 0.57393,-1.80334 1.01916,-2.02889 0.34068,-0.17255 0.91173,-0.61215 1.26928,-0.97687 1.11796,-1.14046 2.44855,-0.61975 2.43464,0.95264 l -0.005,0.79395 0.58117,-0.65862 c 0.31966,-0.36222 0.58893,-1.02837 0.5985,-1.48034 0.0216,-1.01237 0.66025,-1.29233 1.57539,-0.69018 0.70572,0.46438 0.73342,0.79842 0.24838,2.9869 l -0.21501,0.97008 0.89114,-0.90201 c 0.67472,-0.68293 1.06923,-0.86859 1.62451,-0.76447 0.97003,0.18195 1.36699,0.44744 1.23042,0.82286 -0.0617,0.16901 0.11849,0.53911 0.40012,0.82245 0.68769,0.69193 0.63467,1.15964 -0.24351,2.14486 -0.9605,1.07794 -0.93551,1.18595 0.19836,0.85514 0.51888,-0.15132 1.15188,-0.33588 1.40684,-0.41005 0.54474,-0.15854 1.07361,0.95218 1.18204,2.48299 0.0392,0.55402 0.12995,1.12184 0.20149,1.26182 0.12979,0.25396 0.0672,1.97198 -0.0912,2.50368 -0.21234,0.7127 0.006,1.26646 0.50191,1.2714 0.2958,0.003 0.87815,0.27416 1.29382,0.60266 0.41579,0.3285 0.95658,0.52473 1.20186,0.43606 0.76962,-0.27833 2.12616,0.64053 2.29392,1.55381 0.0843,0.45852 0.26482,0.83478 0.40126,0.83614 0.13646,8.7e-4 0.38323,0.57403 0.54851,1.27261 0.21514,0.91027 0.50979,1.37168 1.03943,1.62851 0.7779,0.37721 1.10286,1.15999 1.11825,2.69379 0.006,0.50855 0.20502,1.22731 0.44404,1.5973 0.31272,0.4839 0.39169,1.1531 0.28146,2.38499 -0.0842,0.94178 -0.0409,1.71343 0.0967,1.7148 0.13738,8.3e-4 0.45239,0.43787 0.70021,0.97002 0.46573,1.0005 1.72834,1.72157 1.38267,0.78968 -0.70486,-1.90068 -0.72771,-4.70943 -0.045,-5.53864 0.35646,-0.43307 0.57831,-1.82033 0.31701,-1.98255 -0.12877,-0.08 -0.15317,-0.33986 -0.0543,-0.57759 0.18737,-0.45041 -0.33687,-2.53095 -0.7914,-3.14085 -0.14406,-0.19321 -0.41099,-0.27052 -0.59348,-0.17184 -0.18235,0.0987 -0.23676,0.0802 -0.12078,-0.0414 0.34934,-0.36579 -0.27854,-1.23176 -0.96808,-1.33482 -0.89963,-0.13452 -1.48702,-1.43565 -0.98718,-2.18685 0.31409,-0.47215 0.28306,-0.66008 -0.19987,-1.20977 -1.32315,-1.50625 -1.38622,-1.70381 -2.50216,-7.84626 -0.12678,-0.69782 -0.26008,-1.39567 -0.29637,-1.55081 -0.2013,-0.86303 0.12326,-2.11511 0.71774,-2.76852 0.71185,-0.78258 1.82801,-1.15613 2.10322,-0.70391 0.089,0.14615 0.47855,0.26887 0.86569,0.27272 0.46277,0.004 0.7006,0.16654 0.69417,0.47263 -0.0101,0.42693 0.0367,0.42589 0.54843,-0.0127 0.5947,-0.50965 0.65636,-0.47766 1.6076,0.83483 0.39774,0.54867 0.42457,0.55032 0.83414,0.052 0.33284,-0.40504 0.62674,-0.46954 1.37664,-0.30211 1.14303,0.25523 2.03614,0.83762 2.10531,1.37296 0.0824,0.63564 1.04126,1.604 1.59403,1.60949 0.28196,0.003 0.51015,0.12677 0.50704,0.2755 -0.0101,0.40604 1.17471,1.43219 1.45925,1.26554 0.13649,-0.0799 0.24374,0.0523 0.23865,0.29351 -0.003,0.24129 0.0968,0.4397 0.22609,0.44099 0.37704,0.004 1.37908,2.00983 1.71619,3.43533 l 0.30969,1.31066 1.54426,0.20412 c 0.84943,0.11228 2.16773,0.12341 2.92954,0.0248 1.37612,-0.17822 2.83067,-1.07429 2.53431,-1.56127 -0.0851,-0.13992 0.0323,-0.53194 0.26095,-0.87112 0.23418,-0.34727 0.40359,-1.20082 0.38776,-1.95374 -0.0153,-0.73538 0.0829,-1.33594 0.21797,-1.33461 0.13534,9.2e-4 0.18108,-0.17251 0.10178,-0.38638 -0.0904,-0.24388 0.11954,-0.45049 0.56334,-0.55419 1.15871,-0.27083 2.14176,-2.70446 1.39551,-3.45519 -0.32013,-0.32223 -0.12889,-0.79412 0.74907,-1.84795 0.45041,-0.5406 1.64259,-0.87551 1.63386,-0.45894 -0.002,0.14104 0.19076,0.18544 0.43058,0.0987 0.23983,-0.0868 0.4395,-0.32181 0.44369,-0.52245 0.003,-0.2366 0.51036,-0.39408 1.43775,-0.4481 1.79397,-0.10449 2.56886,0.45086 2.72554,1.95338 0.0615,0.59011 0.32687,1.48666 0.58958,1.99233 0.43499,0.83733 0.59847,0.92059 1.8307,0.93282 1.02578,0.0104 1.91896,-0.26504 3.69407,-1.13831 1.28753,-0.63347 2.2638,-1.27849 2.16956,-1.43338 -0.10151,-0.1669 0.024,-0.20594 0.30806,-0.0958 0.56394,0.21842 1.97682,-0.32007 1.76279,-0.6718 -0.0806,-0.13295 0.094,-0.23935 0.38904,-0.23641 0.67739,0.007 1.23942,-0.51487 1.253,-1.16304 0.009,-0.27495 0.32288,-0.69399 0.70478,-0.93113 0.51828,-0.32179 0.75099,-0.79173 0.91787,-1.85285 0.22057,-1.40047 -0.13842,-3.34315 -0.61822,-3.34791 -0.12869,-9.6e-4 -0.3129,-0.46456 -0.40952,-1.0295 -0.0967,-0.56494 -0.35704,-1.20978 -0.57896,-1.43298 -0.22181,-0.22318 -0.41648,-0.74515 -0.43241,-1.1599 -0.06,-1.54239 -0.13878,-2.17507 -0.33049,-2.65671 -0.12377,-0.31085 -0.0668,-0.49313 0.15325,-0.49096 0.2186,0.002 0.27772,-0.18241 0.15754,-0.49091 -0.10577,-0.27193 -0.22215,-0.62135 -0.25856,-0.77651 -0.1278,-0.54517 -0.69952,-1.98246 -0.99565,-2.50291 -0.36892,-0.64843 0.25204,-2.24782 0.79161,-2.03883 0.19401,0.0752 0.72101,-0.0442 1.17129,-0.26532 0.92541,-0.45429 1.57601,-0.3198 1.56244,0.323 -0.0102,0.3645 0.0864,0.37802 0.59337,0.085 0.52866,-0.30548 0.68565,-0.2516 1.28133,0.4397 1.00901,1.17102 2.40151,0.73526 2.20133,-0.68889 -0.0502,-0.3569 0.49129,-0.22869 0.62041,0.14689 0.17885,0.52044 0.43884,0.17973 0.58997,-0.77311 0.12604,-0.79432 0.19729,-0.83406 1.37213,-0.76422 0.68173,0.0407 1.4768,0.28967 1.76691,0.55366 0.34034,0.30953 0.53021,0.35871 0.5349,0.13842 0.003,-0.18788 0.12193,-0.27037 0.26213,-0.18333 0.14015,0.087 0.33733,-0.0402 0.43813,-0.28248 0.15034,-0.36118 0.33637,-0.28677 1.03118,0.41237 0.46629,0.46915 0.84493,0.9894 0.84142,1.15605 -0.002,0.16669 0.18826,0.30493 0.42629,0.30731 0.23785,0.002 0.42981,0.13092 0.4266,0.28566 -0.012,0.56262 0.0461,0.70761 0.36103,0.90308 0.21894,0.13589 0.17987,0.25012 -0.12304,0.35964 -0.44631,0.16136 -0.47167,0.64437 -0.13763,2.62478 0.11437,0.67839 0.27662,0.88991 0.59466,0.77494 0.24048,-0.087 0.6011,-0.0212 0.80128,0.14545 0.25312,0.2111 0.42285,0.21425 0.5572,0.0101 0.38384,-0.58285 0.74344,-0.27547 0.53814,0.46009 -0.17359,0.62248 -0.12716,0.7183 0.27771,0.57188 0.26753,-0.0968 1.05675,-0.0937 1.75393,0.007 1.0405,0.14989 1.32479,0.32499 1.58701,0.97745 0.17559,0.43721 0.25406,0.89684 0.1742,1.0215 -0.0797,0.12464 -0.0628,0.82897 0.0378,1.56519 0.10063,0.73622 0.0738,1.33749 -0.0598,1.33616 -0.13347,-9.7e-4 -0.24547,0.13263 -0.24899,0.29772 -0.0111,0.50015 -1.5343,2.22328 -1.81314,2.05023 -0.14304,-0.0889 -0.22793,0.007 -0.18873,0.21193 0.097,0.50615 1.06309,1.06465 1.87723,1.08493 0.59977,0.0155 0.64809,0.11563 0.48359,1.00863 -0.12168,0.66034 -0.0632,1.03624 0.17489,1.12417 0.82986,0.3065 1.8203,0.34454 2.1661,0.0831 0.26495,-0.20038 0.51975,-0.10742 0.89228,0.32564 0.28678,0.33336 0.67173,0.60759 0.8552,0.6094 0.18363,0.002 0.45058,0.3211 0.59323,0.70948 0.15866,0.4323 0.48572,0.70837 0.84314,0.71194 0.32118,0.003 0.58171,0.11272 0.57896,0.24339 -0.002,0.13069 0.29014,0.58392 0.65103,1.00723 0.58607,0.68774 0.73618,0.73505 1.41065,0.44461 0.78509,-0.33801 1.40232,-1.70289 0.85394,-1.88796 -0.3685,-0.12433 -0.34533,-3.12491 0.0283,-3.67892 0.18539,-0.27477 0.55765,-0.32877 1.28953,-0.18697 0.69412,0.13444 1.31142,0.0611 1.89695,-0.22546 0.47735,-0.23367 1.1247,-0.42227 1.43851,-0.41914 0.642,0.007 1.57551,-0.75208 1.36053,-1.10537 -0.0771,-0.12686 0.0635,-0.30433 0.31246,-0.39433 0.24906,-0.09 0.38428,-0.276 0.30083,-0.41325 -0.0835,-0.13723 0.17737,-0.58533 0.5797,-0.99569 0.40217,-0.41041 0.73542,-0.93702 0.74024,-1.17019 0.0114,-0.51751 2.55601,-2.75694 3.1307,-2.75466 0.22703,9.7e-4 0.52009,-0.16115 0.65119,-0.36014 0.32366,-0.49146 0.81306,-0.33129 1.86075,0.60899 1.20298,1.07962 1.90951,1.20515 3.23467,0.5747 1.25967,-0.59933 3.30236,-1.01784 3.28824,-0.67367 -0.0189,0.47128 -0.49119,0.84744 -1.75564,1.39933 -0.72066,0.31449 -1.76871,0.77251 -2.32926,1.01785 -0.56036,0.24534 -1.65868,0.87919 -2.44085,1.40858 -0.78197,0.52941 -1.6472,0.96031 -1.92247,0.95758 -0.27528,-0.003 -0.74088,0.24591 -1.03439,0.55256 -0.29369,0.30664 -0.71114,0.55576 -0.92794,0.55362 -0.21681,-0.002 -0.54731,0.30842 -0.73435,0.69017 -0.30016,0.61197 -0.22158,0.84808 0.66393,1.99597 0.85702,1.111 0.97786,1.45358 0.82371,2.33603 -0.2587,1.4825 -3.31046,4.23338 -4.68578,4.22386 -0.33862,-0.003 -0.82438,0.29489 -1.07925,0.66058 -0.43279,0.62057 -0.42137,0.70468 0.17117,1.26451 0.54239,0.51229 0.78039,0.56065 1.63344,0.33177 0.54926,-0.14735 1.02811,-0.26761 1.06429,-0.26726 0.15753,0.002 -0.34778,2.43591 -0.5978,2.87865 -0.30511,0.5407 -0.24257,0.56939 1.11374,0.51051 0.51613,-0.0225 0.93547,0.0956 0.93193,0.26218 -0.002,0.17169 0.55896,0.30855 1.29855,0.31588 1.12655,0.011 1.34035,0.10953 1.5643,0.71911 0.14259,0.38837 0.44791,0.70801 0.67845,0.7103 0.51259,0.005 1.34148,-0.74318 1.35146,-1.22014 0.0115,-0.52267 1.60708,-1.54042 2.22691,-1.41996 0.29759,0.0578 0.6288,0.11574 0.736,0.12864 0.10725,0.0129 0.53231,0.75456 0.94485,1.64811 0.41256,0.89354 0.95497,1.77598 1.20568,1.96094 0.35363,0.26101 0.43663,0.79765 0.3706,2.39679 -0.0994,2.41221 -0.91802,4.43685 -2.08755,5.16305 -0.57793,0.35877 -0.73176,0.63623 -0.61888,1.11537 0.12521,0.53173 0.007,0.66698 -0.71334,0.81343 -0.69541,0.14147 -0.92564,0.38432 -1.18257,1.24684 -0.39231,1.31707 -0.16301,2.07274 0.57443,1.89287 0.79547,-0.194 0.65519,0.30283 -0.55027,1.94946 -0.97495,1.33164 -1.03541,1.51361 -0.63778,1.91385 0.55052,0.55391 1.02526,0.56985 1.24482,0.0419 0.0932,-0.22378 0.61512,-0.54502 1.15982,-0.71386 0.54478,-0.16886 0.99265,-0.40462 0.99513,-0.52392 0.002,-0.11933 1.14335,-0.36009 2.53529,-0.53504 1.72902,-0.21735 2.72171,-0.48743 3.13388,-0.8525 0.57724,-0.51133 3.5519,-1.2313 3.84971,-0.93171 0.0786,0.0793 -0.0296,0.74356 -0.24106,1.47643 -0.81088,2.81252 -0.82937,2.69247 0.6587,4.26305 0.75833,0.8006 1.4846,1.45666 1.61382,1.45794 0.12917,9.7e-4 0.48345,0.3214 0.78723,0.71138 0.30394,0.38998 0.7365,0.71088 0.9616,0.71311 0.22505,0.002 0.96283,0.42854 1.6394,0.9473 0.67669,0.51877 1.93847,1.16901 2.80392,1.44498 1.42632,0.45483 1.65364,0.46231 2.42853,0.0799 1.18464,-0.58467 1.63532,-0.51621 2.25457,0.34253 0.52007,0.72125 0.51999,0.75194 -0.008,1.11783 -0.42663,0.29561 -0.46922,0.45037 -0.199,0.72224 0.18917,0.19031 0.63307,0.35254 0.98647,0.3605 0.52194,0.0115 0.65678,0.19961 0.7177,0.99914 0.12135,1.59314 0.94313,2.24935 1.33989,1.06978 0.35497,-1.05569 0.69537,-1.29104 1.53277,-1.06007 0.6007,0.16571 0.7521,0.35945 0.66757,0.85458 -0.0726,0.42673 0.0167,0.60096 0.26745,0.52242 0.20694,-0.0648 0.64709,0.21048 0.9778,0.61181 0.70209,0.85193 0.85414,3.40569 0.20223,3.3992 -0.58432,-0.006 -0.78965,0.83142 -0.31986,1.30426 0.47396,0.47684 0.55178,1.79371 0.10583,1.7893 -0.35978,-0.004 -0.40408,1.0318 -0.0534,1.24945 0.39331,0.24415 -0.30905,1.41533 -1.04593,1.74408 -0.35568,0.15871 -1.28698,0.22207 -2.06932,0.14076 -1.13814,-0.11824 -1.46101,-0.0556 -1.61426,0.31318 -0.2103,0.50528 0.40255,0.83453 2.20296,1.18326 1.93813,0.37543 0.82633,1.82454 -1.38295,1.80257 -0.73157,-0.007 -1.42223,0.12664 -1.53492,0.29759 -0.11251,0.17094 -0.90818,0.60467 -1.76799,0.96386 -0.85982,0.35917 -1.56624,0.78872 -1.56971,0.95456 -0.002,0.17086 0.15191,0.20785 0.3588,0.0854 0.44765,-0.26493 1.07071,-0.40712 1.73906,-0.39677 0.27755,0.004 0.50672,-0.0956 0.50942,-0.22195 0.002,-0.12638 0.41094,-0.38846 0.90721,-0.58244 0.70295,-0.27473 1.10616,-0.27826 1.82362,-0.016 1.25222,0.45756 2.08175,0.43219 2.29056,-0.0702 0.14417,-0.34648 0.31158,-0.35996 0.97012,-0.0782 0.43762,0.18728 0.92304,0.48949 1.07839,0.67163 0.15549,0.18215 0.5722,0.42431 0.92613,0.53819 0.79601,0.25606 0.79402,0.35037 -0.0454,2.11646 -0.64818,1.36314 -0.75954,1.45124 -2.43549,1.92367 -1.18012,0.33271 -2.17578,0.43449 -3.03533,0.31025 -1.55983,-0.22546 -4.39536,0.43138 -5.12921,1.18812 -0.37243,0.38415 -0.38652,0.44105 -0.0506,0.20373 0.2564,-0.18112 0.54979,-0.24512 0.65203,-0.14225 0.10222,0.10283 0.18915,0.0337 0.19304,-0.1536 0.003,-0.18733 0.16873,-0.31061 0.3663,-0.27393 0.1975,0.0365 0.84245,-0.066 1.43292,-0.22834 0.74873,-0.20566 1.4036,-0.20428 2.16328,0.005 0.9561,0.26286 2.54677,0.31994 4.98628,0.17883 0.60453,-0.035 0.73292,0.0959 0.78917,0.80318 0.088,1.10863 -0.5572,1.89936 -1.57109,1.92538 -0.85135,0.0219 -1.42263,0.71842 -0.59576,0.72664 0.26056,0.003 0.38736,0.13554 0.28213,0.29549 -0.12424,0.18857 0.0718,0.22925 0.55748,0.11574 0.83729,-0.19569 0.98478,0.18515 0.28489,0.73553 -0.65174,0.51251 -0.09,0.97122 0.69976,0.57121 0.58365,-0.29576 0.60971,-0.26553 0.40577,0.47044 -0.19667,0.70986 -0.17019,0.74935 0.2707,0.40514 0.26868,-0.20977 0.49265,-0.57692 0.49768,-0.81588 0.0163,-0.75819 0.3031,-0.17334 0.41534,0.84573 0.0738,0.67045 -0.0531,1.14822 -0.40059,1.51249 -0.39804,0.41703 -0.51031,1.0101 -0.51782,2.73514 -0.009,2.08093 -0.049,2.2197 -0.72313,2.50997 -0.53916,0.23209 -0.85213,0.22036 -1.27973,-0.048 -0.31151,-0.19529 -0.81046,-0.28235 -1.10905,-0.19346 -0.39852,0.1187 -0.72009,-0.10273 -1.21008,-0.83309 -0.88469,-1.31867 -2.58522,-2.6494 -3.83403,-3.00022 -0.55537,-0.15599 -1.30982,-0.56723 -1.67686,-0.91388 -0.73827,-0.69743 -0.91224,-0.38883 -0.26687,0.4734 0.59235,0.79137 0.52262,0.97308 -0.37177,0.96878 -0.43625,-0.002 -1.36099,0.1822 -2.05505,0.4095 -0.73159,0.23958 -1.65051,0.33796 -2.18682,0.23408 -0.6864,-0.13295 -1.03457,-0.0517 -1.34954,0.31429 -0.26525,0.30828 -0.28775,0.41549 -0.0598,0.28569 0.21737,-0.12371 0.36359,-0.0588 0.36159,0.16066 -0.004,0.27372 0.0675,0.2635 0.27174,-0.0398 0.2364,-0.35101 0.35272,-0.33759 0.82906,0.0959 0.30466,0.27724 0.60247,0.3769 0.66198,0.22157 0.1411,-0.36891 2.36117,-0.38704 3.9838,-0.0325 0.7034,0.1537 1.53461,0.23416 1.84704,0.1788 0.36578,-0.0648 0.85226,0.2251 1.36729,0.81475 2.15868,2.47177 3.89909,3.79186 4.9913,3.78582 0.82511,-0.004 0.93576,0.084 0.92193,0.73845 -0.0101,0.40899 -0.18091,0.80343 -0.38293,0.87646 -0.53397,0.19307 -3.16036,-0.0917 -3.50836,-0.38053 -0.16312,-0.13534 -1.20397,-0.30447 -2.31311,-0.37582 -1.10894,-0.0714 -2.24136,-0.23412 -2.51633,-0.3617 -0.31177,-0.14465 -0.50236,-0.11617 -0.50634,0.0759 -0.0101,0.41506 1.55636,1.04391 3.17157,1.27424 1.0595,0.1511 3.61128,1.49366 4.50704,2.37125 0.11202,0.10982 -0.42404,0.89681 -1.37607,2.02021 -0.52558,0.62018 -0.57336,0.6254 -1.63305,0.17904 -0.60056,-0.25291 -1.37157,-0.41711 -1.71337,-0.36492 -0.53486,0.0818 -0.47391,0.16946 0.43652,0.62936 0.58205,0.29394 0.98897,0.63955 0.90437,0.76796 -0.0845,0.12845 0.25402,0.23759 0.75244,0.24254 0.56432,0.006 0.86124,0.13291 0.78666,0.33744 -0.12385,0.34049 -0.66309,0.45839 -2.77722,0.60721 -0.68445,0.0483 -1.32516,0.1639 -1.42375,0.25715 -0.0986,0.0932 -0.41714,0.16724 -0.70789,0.16434 -0.64813,-0.007 -0.72952,0.90249 -0.12579,1.40588 0.23388,0.19502 0.4219,0.51346 0.41773,0.70769 -0.003,0.19425 0.18407,0.5127 0.41777,0.70771 0.23396,0.19501 0.42316,0.45673 0.42055,0.58155 -0.0106,0.46133 -2.5222,1.80895 -3.48158,1.8674 -0.54539,0.0335 -1.15015,0.18498 -1.34362,0.33726 -1.03945,0.8172 -4.61711,-0.2113 -4.90016,-1.40864 -0.0833,-0.35318 -0.39237,-0.77161 -0.68661,-0.92984 -0.29408,-0.15825 -0.50132,-0.39502 -0.46058,-0.52612 0.0412,-0.13112 -0.28956,-0.5805 -0.73404,-0.99864 -0.91797,-0.86313 -1.80747,-0.87672 -1.67026,-0.0259 0.0983,0.60939 0.58509,1.02205 0.95197,0.80714 0.12939,-0.0757 0.30855,0.0603 0.39832,0.30232 0.0898,0.242 0.27417,0.37499 0.40989,0.29553 0.13562,-0.0795 0.3235,0.30528 0.41748,0.85497 0.0937,0.54968 0.47533,1.24009 0.8477,1.53423 0.37216,0.29412 0.67392,0.67225 0.67044,0.84028 -0.002,0.16802 0.4837,0.55695 1.08274,0.8643 1.30264,0.66825 1.8762,1.30358 1.65583,1.83363 -0.18751,0.45073 -1.54118,0.29051 -2.213,-0.26194 -1.09986,-0.90443 -3.72582,-1.14428 -3.7427,-0.34184 -0.003,0.18499 0.35984,0.60878 0.80824,0.94177 0.96612,0.71729 1.26523,1.90228 0.6318,2.5018 -0.24303,0.22993 -0.6142,0.35126 -0.82487,0.26963 -0.2108,-0.0817 -0.46591,-0.023 -0.56685,0.13034 -0.10104,0.1533 -0.4198,0.2028 -0.70852,0.10997 -0.28845,-0.0929 -0.60796,-0.0424 -0.70956,0.11198 -0.25829,0.39212 0.8474,1.43726 1.52759,1.44401 0.53002,0.005 0.53709,0.0613 0.12129,0.98259 -0.37106,0.82237 -0.38377,1.12135 -0.0801,1.88894 0.3008,0.76057 0.29036,1.09921 -0.0629,2.04008 -0.23293,0.62049 -0.36004,1.47443 -0.28237,1.89763 0.0944,0.51424 -0.002,0.84578 -0.2926,0.99947 -0.23863,0.12647 -0.49852,0.52503 -0.57733,0.88565 -0.19971,0.91211 -0.25478,0.93778 -1.89847,0.88527 -1.30154,-0.0415 -1.66151,0.0904 -3.26601,1.19698 -0.99184,0.684 -1.93972,1.2463 -2.10624,1.24954 -0.32137,0.006 -1.42302,0.89109 -2.2989,1.84638 -0.43696,0.47666 -0.48506,0.77505 -0.282,1.74824 0.18875,0.90389 0.15039,1.26306 -0.16697,1.56342 -0.22663,0.21446 -0.41598,0.57534 -0.42071,0.80196 -0.003,0.22665 -0.20285,0.48219 -0.43985,0.56792 -0.23709,0.0859 -0.36435,0.33586 -0.28279,0.55578 0.12359,0.33311 -0.28756,0.37128 -2.46144,0.22858 -1.91917,-0.12596 -2.61181,-0.0821 -2.61705,0.16594 -0.003,0.21522 -0.31295,0.28706 -0.8518,0.19857 -1.20218,-0.19744 -1.4998,-0.44962 -1.27939,-1.0841 0.18764,-0.53961 0.17528,-0.54114 -0.4265,-0.0531 -0.34074,0.27648 -0.48698,0.54746 -0.32477,0.60219 0.50847,0.17158 -0.0126,0.61121 -0.71272,0.60425 -0.39732,-0.004 -0.85734,-0.29538 -1.12841,-0.71476 -0.53982,-0.83533 -1.13131,-0.94911 -0.89568,-0.17231 0.20555,0.67739 -0.41182,0.88989 -2.32478,0.80022 -0.85586,-0.0402 -1.44704,0.0619 -1.52006,0.26226 -0.0657,0.18037 -0.62014,0.32296 -1.23236,0.31685 -1.44057,-0.0144 -3.13326,0.93008 -3.39588,1.89479 -0.24904,0.91482 -0.59592,1.14899 -1.70878,1.15402 -1.67981,0.008 -4.72004,0.98121 -5.95255,1.90629 -1.24539,0.93473 -4.4419,4.29543 -4.98111,5.23691 -0.16415,0.28671 -0.81908,0.86312 -1.45525,1.28092 -0.63607,0.41782 -1.47338,1.31765 -1.86054,1.99962 -0.38727,0.68201 -1.07071,1.40786 -1.5186,1.61305 -0.44813,0.20519 -1.25668,0.98945 -1.79698,1.74281 -0.54021,0.75335 -2.1974,2.55483 -3.68263,4.00334 -1.84414,1.79853 -2.79535,2.95263 -3.00003,3.63985 -0.28212,0.94741 -0.39737,1.0246 -1.97021,1.3196 -0.91876,0.17234 -2.71038,0.38376 -3.98137,0.46985 -1.27095,0.0861 -2.44256,0.24748 -2.60355,0.35869 -0.41073,0.28362 -3.06208,-0.0115 -2.86008,-0.318 0.0913,-0.13833 -0.0259,-0.2534 -0.25982,-0.25574 -0.23412,-0.002 -0.47206,0.12316 -0.52868,0.2789 -0.0587,0.16094 -1.72204,0.3296 -3.85433,0.39077 -5.60571,0.16083 -5.82409,0.18589 -6.47276,0.74188 -0.38347,0.32872 -0.86462,0.4617 -1.33474,0.36897 -0.40437,-0.0798 -0.81037,-0.0307 -0.90233,0.10888 -0.092,0.13964 -0.67941,0.44716 -1.30549,0.68342 -0.62616,0.23622 -1.14226,0.61121 -1.14699,0.83333 -0.003,0.22214 -0.16981,0.36626 -0.36726,0.32035 -0.50559,-0.11761 -2.51094,1.10741 -3.46673,2.11781 -0.76008,0.80363 -1.77889,2.53045 -2.97882,5.04964 -1.61434,3.38843 -2.30804,4.47348 -3.39991,5.31805 -1.56784,1.21243 -5.93434,3.73544 -6.45585,3.73026 -0.5602,-0.006 -7.06376,1.53962 -8.53415,2.02759 -0.64919,0.21544 -1.09998,0.26967 -1.00173,0.12059 0.22277,-0.3383 -1.08022,-0.37403 -1.46121,-0.04 -0.15357,0.13456 -0.7691,0.39154 -1.36776,0.57107 -0.59882,0.17953 -1.09249,0.5096 -1.09724,0.73345 -0.009,0.30117 -0.31402,0.38394 -1.18343,0.31819 -0.64621,-0.0488 -1.20518,-0.11889 -1.24233,-0.15565 l -0.003,9.2e-4 4.4e-4,1.9e-4 z"
     id="path3895"
     style="fill:#ffd2b4;fill-opacity:1;stroke:#73adc2;stroke-width:0.95472771;stroke-miterlimit:4;stroke-opacity:1;stroke-dasharray:none" />
  <path
     d="m -1.0475193,386.59897 c 6.9695801,-6.67318 17.7756333,-14.50216 21.2529323,-22.81517 1.51338,-3.61797 3.619417,-6.93021 7.061536,-10.966 1.601836,-4.64542 10.288112,-9.76282 18.298971,-18.32404 7.406856,-17.97148 20.194007,-33.55172 41.60569,-45.29884 4.833068,-3.19211 17.62765,-13.03718 28.15198,-20.79677 3.4656,-2.55519 8.4008,-1.61837 12.74844,-0.27315 l 4.95763,-4.95763 13.84005,0.30985 3.20179,-5.0609 3.61494,0.10328 5.7839,-8.9857 5.7839,-0.10328 19.41737,-29.22935 c 3.9503,-1.21564 7.19374,-0.5463 10.32839,0.41314 l 8.26271,3.71822 c 9.36344,-2.43839 19.58141,-0.0344 29.74576,2.06567 l -6.61016,15.69916 -4.13136,2.47881 c -6.51798,6.25451 -10.9226,13.03736 -15.28602,19.83051 -22.49843,4.5304 -35.30797,22.79295 -52.20115,35.21247 l 8.40878,8.99304 23.96186,-16.93856 c 10.73265,-5.38852 22.6898,-8.32803 30.1589,-20.24365 17.1999,-13.00439 25.18483,-11.91529 36.35593,-15.69915 3.58051,-4.5776 7.16102,-9.51636 10.74153,-14.87288 0.45777,-8.40385 3.45351,-16.8077 6.58511,-25.21154 3.78499,-9.75952 7.16527,-19.62021 7.87464,-30.14863 -2.50024,-21.62076 -4.33146,-43.24153 -8.26272,-64.86229 l -9.11404,-3.13396 -3.06092,-18.175811 -10.18233,-1.923913 -2.84398,-3.206991 c -0.016,-5.095339 0.64993,-10.190678 -0.41313,-15.286017 -10.32681,-1.400591 -18.80187,-4.190239 -19.36855,-10.079395 -0.56585,-5.880495 -0.69302,-15.072046 3.28132,-25.475326 0.26939,-6.67601 -0.85853,-12.434266 0.80121,-19.805449 1.62288,-9.963188 5.61,-20.221906 10.32839,-30.5720335 l -14.45975,4.5444915 -16.52542,76.016949 16.11229,5.783899 c 2.14945,4.269068 5.14361,8.538135 2.06568,12.807203 l 15.69915,8.262713 2.89195,16.52542 13.22034,3.71822 1.45364,28.34604 1.85144,36.10312 c -4.37021,7.62845 -5.2327,13.79534 -4.95763,19.48826 l -7.0233,6.95241 c -10.04631,0.91258 -25.03358,-3.82167 -37.59534,-5.78389 -10.69615,0.77771 -20.83795,4.32719 -32.22458,1.65254 l -23.66973,33.00073 -5.66289,0.0501 -16.16027,13.09718 -10.69355,0.12315 c -22.0096,11.03153 -39.542192,24.74926 -57.838979,38.00848 L 25.614407,341.25 l -31.8114409,37.1822 5.1495146,8.16677 z"
     id="path3111"
     style="color:#000000;fill:#ceb7cf;fill-opacity:1;stroke:#000000;stroke-width:1;stroke-linecap:butt;stroke-linejoin:miter;stroke-miterlimit:4;stroke-opacity:1;stroke-dasharray:none;stroke-dashoffset:0;marker:none;visibility:visible;display:inline;overflow:visible;enable-background:accumulate" />
  <path
     d="m 198,217 3.5,-8 3.5,8 -7,0 z"
     id="path3591"
     style="color:#000000;fill:#d5143a;fill-opacity:1;stroke:none;stroke-width:2px;marker:none;visibility:visible;display:inline;overflow:visible;enable-background:accumulate" />
  <use
     transform="translate(42,14)"
     id="use3593"
     x="0"
     y="0"
     width="376"
     height="390"
     xlink:href="#path3591" />
  <use
     transform="translate(51,24)"
     id="use3595"
     x="0"
     y="0"
     width="376"
     height="390"
     xlink:href="#path3591" />
  <use
     transform="translate(1,64)"
     id="use3597"
     x="0"
     y="0"
     width="376"
     height="390"
     xlink:href="#path3591" />
  <use
     transform="translate(-85,50)"
     id="use3599"
     x="0"
     y="0"
     width="376"
     height="390"
     xlink:href="#path3591" />
  <use
     transform="translate(-58,41)"
     id="use3601"
     x="0"
     y="0"
     width="376"
     height="390"
     xlink:href="#path3591" />
  <use
     transform="translate(69,-60)"
     id="use3603"
     x="0"
     y="0"
     width="376"
     height="390"
     xlink:href="#path3591" />
  <use
     transform="translate(63,-75)"
     id="use3605"
     x="0"
     y="0"
     width="376"
     height="390"
     xlink:href="#path3591" />
  <path
     d="m 152.05417,236.92337 a 2.4831133,2.4831133 0 1 1 -4.96622,0 2.4831133,2.4831133 0 1 1 4.96622,0 z"
     transform="matrix(1.2081607,0,0,1.2081607,-41.70589,-41.241526)"
     id="path3607"
     style="fill:#000000;fill-opacity:1;stroke:none" />
  <path
     d="m 152.05417,236.92337 a 2.4831133,2.4831133 0 1 1 -4.96622,0 2.4831133,2.4831133 0 1 1 4.96622,0 z"
     transform="matrix(1.2081607,0,0,1.2081607,-49.705877,-36.241505)"
     id="path3609"
     style="fill:#000000;fill-opacity:1;stroke:none" />
  <g
     style="font-size:12px;font-style:normal;font-variant:normal;font-weight:normal;font-stretch:normal;text-align:start;line-height:125%;writing-mode:lr-tb;text-anchor:start;fill:#000000;fill-opacity:1;stroke:none;font-family:Sans;-inkscape-font-specification:ALPHA-Demo"
     id="text3631">
    <path
       d="m 76.423309,232.30798 0,-7.57617 -2.830078,0 0,-1.01367 6.808594,0 0,1.01367 -2.841797,0 0,7.57617 z"
       style=""
       id="path3872" />
    <path
       d="m 81.438934,232.30798 0,-8.58984 1.054688,0 0,3.08203 c 0.492185,-0.57031 1.113278,-0.85546 1.863281,-0.85547 0.460933,10e-6 0.861324,0.0908 1.201172,0.27246 0.339838,0.18165 0.583002,0.43263 0.729492,0.75293 0.146479,0.32032 0.219721,0.78516 0.219727,1.39453 l 0,3.94336 -1.054688,0 0,-3.94336 c -5e-6,-0.52734 -0.114262,-0.91112 -0.342773,-1.15136 -0.22852,-0.24023 -0.551762,-0.36035 -0.969727,-0.36035 -0.312503,0 -0.606448,0.0811 -0.881836,0.24316 -0.275393,0.16211 -0.471682,0.38184 -0.588867,0.65918 -0.117189,0.27735 -0.175783,0.66016 -0.175781,1.14844 l 0,3.40429 z"
       style=""
       id="path3874" />
    <path
       d="m 88.124481,224.93103 0,-1.21289 1.054688,0 0,1.21289 z m 0,7.37695 0,-6.22265 1.054688,0 0,6.22265 z"
       style=""
       id="path3876" />
    <path
       d="m 90.790497,232.30798 0,-6.22265 0.949219,0 0,0.88476 c 0.457029,-0.68358 1.117184,-1.02538 1.980468,-1.02539 0.374996,10e-6 0.719722,0.0674 1.03418,0.20215 0.314448,0.13477 0.549799,0.31153 0.706055,0.53027 0.156244,0.21876 0.265619,0.47852 0.328125,0.7793 0.03906,0.19532 0.05859,0.53711 0.05859,1.02539 l 0,3.82617 -1.054687,0 0,-3.78515 c -5e-6,-0.42969 -0.04102,-0.75097 -0.123047,-0.96387 -0.08204,-0.21289 -0.227543,-0.38281 -0.436523,-0.50977 -0.208989,-0.12694 -0.454106,-0.19042 -0.735352,-0.19043 -0.449222,1e-5 -0.836917,0.14259 -1.163086,0.42774 -0.326174,0.28516 -0.48926,0.82618 -0.489258,1.62305 l 0,3.39843 z"
       style=""
       id="path3878" />
    <path
       d="m 97.276825,232.82361 1.025391,0.15234 c 0.04297,0.31641 0.162107,0.54688 0.357421,0.69141 0.261717,0.19531 0.619138,0.29297 1.072266,0.29297 0.488277,0 0.865227,-0.0977 1.130857,-0.29297 0.26562,-0.19532 0.44531,-0.46875 0.53906,-0.82031 0.0547,-0.21485 0.0801,-0.66602 0.0762,-1.35352 -0.46095,0.54297 -1.03516,0.81445 -1.722659,0.81445 -0.855471,0 -1.51758,-0.30859 -1.986329,-0.92578 -0.46875,-0.61718 -0.703125,-1.35742 -0.703125,-2.2207 0,-0.59375 0.107422,-1.1416 0.322266,-1.64356 0.214843,-0.50194 0.526366,-0.88964 0.93457,-1.16308 0.408201,-0.27343 0.887693,-0.41015 1.438477,-0.41016 0.73437,10e-6 1.33984,0.29688 1.81641,0.89063 l 0,-0.75 0.97265,0 0,5.3789 c 0,0.96875 -0.0986,1.65528 -0.2959,2.05957 -0.19727,0.4043 -0.50977,0.72363 -0.9375,0.95801 -0.42773,0.23437 -0.9541,0.35156 -1.579098,0.35156 -0.742189,0 -1.341798,-0.16699 -1.798828,-0.50097 -0.457032,-0.33399 -0.677735,-0.83692 -0.662109,-1.50879 z m 0.873047,-3.73828 c -2e-6,0.81641 0.162108,1.41211 0.486328,1.78711 0.324216,0.375 0.730466,0.5625 1.21875,0.5625 0.48437,0 0.89062,-0.18653 1.21875,-0.55957 0.32812,-0.37305 0.49218,-0.95801 0.49219,-1.75489 -10e-6,-0.76171 -0.16895,-1.33593 -0.50684,-1.72265 -0.33789,-0.38672 -0.74512,-0.58008 -1.221678,-0.58008 -0.468753,0 -0.86719,0.19043 -1.195313,0.57129 -0.328126,0.38086 -0.492189,0.94629 -0.492187,1.69629 z"
       style=""
       id="path3880" />
    <path
       d="m 105.87839,232.30798 -2.36719,-6.22265 1.11328,0 1.33594,3.72656 c 0.14453,0.40235 0.27734,0.82031 0.39844,1.25391 0.0937,-0.32813 0.2246,-0.72266 0.39257,-1.1836 l 1.38282,-3.79687 1.08398,0 -2.35547,6.22265 z"
       style=""
       id="path3882" />
    <path
       d="m 114.40964,230.30408 1.08984,0.13476 c -0.17188,0.63672 -0.49024,1.13086 -0.95508,1.48242 -0.46485,0.35157 -1.05859,0.52735 -1.78125,0.52735 -0.91016,0 -1.63183,-0.28027 -2.16504,-0.84082 -0.5332,-0.56055 -0.7998,-1.34668 -0.7998,-2.3584 0,-1.04687 0.26953,-1.85937 0.80859,-2.4375 0.53906,-0.57812 1.23828,-0.86718 2.09766,-0.86719 0.83203,10e-6 1.51171,0.28321 2.03906,0.84961 0.52734,0.56641 0.79101,1.36329 0.79102,2.39063 -10e-6,0.0625 -0.002,0.15625 -0.006,0.28125 l -4.64063,0 c 0.0391,0.68359 0.23242,1.20703 0.58008,1.57031 0.34765,0.36328 0.78125,0.54492 1.30078,0.54492 0.38672,0 0.7168,-0.10156 0.99024,-0.30469 0.27343,-0.20312 0.49023,-0.52734 0.65039,-0.97265 z m -3.46289,-1.70508 3.47461,0 c -0.0469,-0.52343 -0.1797,-0.91601 -0.39844,-1.17774 -0.33594,-0.40624 -0.77149,-0.60936 -1.30664,-0.60937 -0.48438,1e-5 -0.89161,0.16211 -1.22168,0.48633 -0.33008,0.32422 -0.5127,0.75781 -0.54785,1.30078 z"
       style=""
       id="path3884" />
    <path
       d="m 116.80612,232.30798 0,-8.58984 1.05469,0 0,8.58984 z"
       style=""
       id="path3886" />
    <path
       d="m 119.478,232.30798 0,-8.58984 1.05468,0 0,8.58984 z"
       style=""
       id="path3888" />
    <path
       d="m 122.17917,224.93103 0,-1.21289 1.05469,0 0,1.21289 z m 0,7.37695 0,-6.22265 1.05469,0 0,6.22265 z"
       style=""
       id="path3890" />
    <path
       d="m 124.83347,232.30798 0,-6.22265 0.94921,0 0,0.94336 c 0.24219,-0.4414 0.46582,-0.73242 0.6709,-0.87305 0.20508,-0.14062 0.43066,-0.21093 0.67676,-0.21094 0.35547,10e-6 0.71679,0.11329 1.08398,0.33985 l -0.36328,0.97851 c -0.25781,-0.15234 -0.51562,-0.22851 -0.77343,-0.22851 -0.23048,0 -0.43751,0.0693 -0.6211,0.208 -0.18359,0.13868 -0.31445,0.33106 -0.39258,0.57715 -0.11719,0.37501 -0.17578,0.78516 -0.17578,1.23047 l 0,3.25781 z"
       style=""
       id="path3892" />
    <path
       d="m 74.255341,247.30798 0,-8.58984 3.808593,0 c 0.76562,1e-5 1.34765,0.0772 1.746094,0.23144 0.398431,0.15431 0.71679,0.42677 0.955078,0.81739 0.238274,0.39063 0.357414,0.82227 0.357422,1.29492 -8e-6,0.60938 -0.197273,1.12305 -0.591797,1.54102 -0.394538,0.41797 -1.003912,0.68359 -1.828125,0.79687 0.300776,0.14454 0.529291,0.28711 0.685547,0.42773 0.332025,0.3047 0.646478,0.68555 0.943359,1.14258 l 1.494141,2.33789 -1.429687,0 -1.136719,-1.78711 c -0.332037,-0.51562 -0.605474,-0.91015 -0.820313,-1.18359 -0.214848,-0.27343 -0.407231,-0.46484 -0.577148,-0.57422 -0.169926,-0.10937 -0.342778,-0.18554 -0.518555,-0.22851 -0.12891,-0.0273 -0.339847,-0.041 -0.632812,-0.041 l -1.31836,0 0,3.81445 z m 1.136718,-4.79882 2.44336,0 c 0.519526,0 0.925776,-0.0537 1.21875,-0.16114 0.292962,-0.10741 0.515618,-0.27929 0.667968,-0.51562 0.152338,-0.23632 0.228509,-0.49316 0.228516,-0.77051 -7e-6,-0.40624 -0.147467,-0.74023 -0.442383,-1.00195 -0.294928,-0.26171 -0.760747,-0.39257 -1.397461,-0.39258 l -2.71875,0 z"
       style=""
       id="path3894" />
    <path
       d="m 87.034637,245.30408 1.089844,0.13476 c -0.171881,0.63672 -0.49024,1.13086 -0.955078,1.48242 -0.464848,0.35157 -1.058598,0.52735 -1.78125,0.52735 -0.910159,0 -1.631838,-0.28027 -2.165039,-0.84082 -0.533204,-0.56055 -0.799805,-1.34668 -0.799805,-2.3584 0,-1.04687 0.269531,-1.85937 0.808594,-2.4375 0.539061,-0.57812 1.238279,-0.86718 2.097656,-0.86719 0.832027,10e-6 1.511714,0.28321 2.039063,0.84961 0.527338,0.56641 0.791009,1.36329 0.791015,2.39063 -6e-6,0.0625 -0.002,0.15625 -0.0059,0.28125 l -4.640625,0 c 0.03906,0.68359 0.23242,1.20703 0.580078,1.57031 0.347654,0.36328 0.781247,0.54492 1.300781,0.54492 0.386715,0 0.716793,-0.10156 0.990235,-0.30469 0.273433,-0.20312 0.490229,-0.52734 0.65039,-0.97265 z m -3.46289,-1.70508 3.474609,0 c -0.04688,-0.52343 -0.179692,-0.91601 -0.398437,-1.17774 -0.335942,-0.40624 -0.771489,-0.60936 -1.306641,-0.60937 -0.484378,1e-5 -0.891604,0.16211 -1.22168,0.48633 -0.33008,0.32422 -0.512697,0.75781 -0.547851,1.30078 z"
       style=""
       id="path3896" />
    <path
       d="m 89.407684,249.70447 -0.117187,-0.99024 c 0.230468,0.0625 0.431639,0.0937 0.603515,0.0937 0.234374,0 0.421874,-0.0391 0.5625,-0.11718 0.140624,-0.0781 0.255858,-0.18751 0.345704,-0.32813 0.0664,-0.10547 0.173825,-0.36719 0.322265,-0.78516 0.01953,-0.0586 0.05078,-0.14453 0.09375,-0.25781 l -2.361328,-6.23437 1.136719,0 1.294922,3.60351 c 0.167966,0.45704 0.318356,0.9375 0.451172,1.44141 0.12109,-0.48437 0.265621,-0.95703 0.433593,-1.41797 l 1.330078,-3.62695 1.054688,0 -2.367188,6.32812 c -0.253909,0.6836 -0.451175,1.1543 -0.591796,1.41211 -0.187503,0.34766 -0.402347,0.60254 -0.644532,0.76465 -0.242189,0.16211 -0.531251,0.24316 -0.867187,0.24316 -0.203126,0 -0.429689,-0.043 -0.679688,-0.1289 z"
       style=""
       id="path3898" />
    <path
       d="m 95.460419,247.30798 0,-8.58984 1.054687,0 0,4.89844 2.496094,-2.53125 1.36523,0 -2.378902,2.30859 2.619142,3.91406 -1.300783,0 -2.05664,-3.18164 -0.744141,0.71485 0,2.46679 z"
       style=""
       id="path3900" />
    <path
       d="m 101.4487,239.94275 0,-1.22461 1.05469,0 0,1.22461 z m -1.33594,9.7793 0.19922,-0.89649 c 0.21094,0.0547 0.37695,0.082 0.49805,0.082 0.21484,0 0.375,-0.0713 0.48047,-0.21386 0.10546,-0.14258 0.1582,-0.49903 0.1582,-1.06934 l 0,-6.53906 1.05469,0 0,6.5625 c 0,0.76562 -0.0996,1.29882 -0.29883,1.59961 -0.25391,0.39062 -0.67578,0.58593 -1.26563,0.58593 -0.28515,0 -0.56054,-0.0371 -0.82617,-0.11132 z"
       style=""
       id="path3903" />
    <path
       d="m 108.18698,246.54041 c -0.39063,0.33203 -0.7666,0.5664 -1.12793,0.70312 -0.36133,0.13672 -0.74902,0.20508 -1.16308,0.20508 -0.6836,0 -1.20899,-0.16699 -1.57618,-0.50098 -0.36718,-0.33398 -0.55078,-0.76074 -0.55078,-1.28027 0,-0.30469 0.0693,-0.58301 0.20801,-0.83496 0.13867,-0.25195 0.32031,-0.4541 0.54492,-0.60645 0.22461,-0.15234 0.47754,-0.26757 0.75879,-0.3457 0.20703,-0.0547 0.51953,-0.10742 0.9375,-0.1582 0.85156,-0.10156 1.47851,-0.22266 1.88086,-0.36329 0.004,-0.14452 0.006,-0.23632 0.006,-0.27539 0,-0.42968 -0.0996,-0.73241 -0.29883,-0.9082 -0.26953,-0.23827 -0.66992,-0.35742 -1.20117,-0.35742 -0.4961,0 -0.86231,0.0869 -1.09863,0.26074 -0.23633,0.17383 -0.41114,0.48145 -0.52442,0.92285 l -1.03125,-0.14062 c 0.0937,-0.4414 0.24805,-0.79785 0.46289,-1.06934 0.21485,-0.27148 0.52539,-0.48046 0.93164,-0.62695 0.40625,-0.14648 0.87695,-0.21972 1.41211,-0.21973 0.53125,10e-6 0.96289,0.0625 1.29493,0.1875 0.33202,0.12501 0.57616,0.28223 0.73242,0.47168 0.15624,0.18946 0.26562,0.42872 0.32812,0.71778 0.0352,0.17969 0.0527,0.50391 0.0527,0.97265 l 0,1.40625 c -10e-6,0.98047 0.0225,1.60059 0.0674,1.86035 0.0449,0.25977 0.13378,0.50879 0.2666,0.74707 l -1.10156,0 c -0.10938,-0.21875 -0.17969,-0.47461 -0.21094,-0.76757 z m -0.0879,-2.35547 c -0.38282,0.15625 -0.95703,0.28906 -1.72266,0.39843 -0.43359,0.0625 -0.74023,0.13282 -0.91992,0.21094 -0.17969,0.0781 -0.31836,0.19239 -0.41601,0.34277 -0.0977,0.1504 -0.14649,0.31739 -0.14649,0.50098 0,0.28125 0.10645,0.51563 0.31934,0.70313 0.21289,0.1875 0.52441,0.28125 0.93457,0.28125 0.40625,0 0.76757,-0.0889 1.08398,-0.26661 0.31641,-0.17773 0.54883,-0.42089 0.69727,-0.72949 0.11328,-0.23828 0.16992,-0.58984 0.16992,-1.05468 z"
       style=""
       id="path3905" />
    <path
       d="m 112.53464,247.30798 -2.36719,-6.22265 1.11328,0 1.33594,3.72656 c 0.14453,0.40235 0.27734,0.82031 0.39844,1.25391 0.0937,-0.32813 0.2246,-0.72266 0.39257,-1.1836 l 1.38282,-3.79687 1.08398,0 -2.35547,6.22265 z"
       style=""
       id="path3907" />
    <path
       d="m 116.81198,239.93103 0,-1.21289 1.05469,0 0,1.21289 z m 0,7.37695 0,-6.22265 1.05469,0 0,6.22265 z"
       style=""
       id="path3909" />
    <path
       d="m 119.48386,247.30798 0,-8.58984 1.05468,0 0,4.89844 2.4961,-2.53125 1.36523,0 -2.3789,2.30859 2.61914,3.91406 -1.30079,0 -2.05664,-3.18164 -0.74414,0.71485 0,2.46679 z"
       style=""
       id="path3911" />
  </g>
  <g
     style="font-size:12px;font-style:normal;font-variant:normal;font-weight:normal;font-stretch:normal;text-align:start;line-height:125%;writing-mode:lr-tb;text-anchor:start;fill:#000000;fill-opacity:1;stroke:none;font-family:Sans;-inkscape-font-specification:ALPHA-Demo"
     id="text3637">
    <path
       d="m 279.42276,159.21652 0,-8.58984 1.13672,0 0,4.25976 4.26562,-4.25976 1.54102,0 -3.60352,3.48047 3.76172,5.10937 -1.5,0 -3.05859,-4.34765 -1.40625,1.37109 0,2.97656 z"
       style=""
       id="path3859" />
    <path
       d="m 287.33878,159.21652 0,-6.22265 0.94921,0 0,0.94336 c 0.24219,-0.44141 0.46582,-0.73242 0.6709,-0.87305 0.20508,-0.14062 0.43066,-0.21093 0.67676,-0.21094 0.35547,1e-5 0.71679,0.11329 1.08399,0.33984 l -0.36329,0.97852 c -0.25781,-0.15234 -0.51562,-0.22851 -0.77343,-0.22852 -0.23048,1e-5 -0.43751,0.0693 -0.6211,0.20801 -0.18359,0.13868 -0.31445,0.33106 -0.39258,0.57715 -0.11719,0.37501 -0.17578,0.78516 -0.17578,1.23047 l 0,3.25781 z"
       style=""
       id="path3861" />
    <path
       d="m 295.41885,158.44894 c -0.39063,0.33204 -0.7666,0.56641 -1.12793,0.70313 -0.36133,0.13672 -0.74902,0.20508 -1.16308,0.20508 -0.6836,0 -1.20899,-0.16699 -1.57617,-0.50098 -0.36719,-0.33398 -0.55079,-0.76074 -0.55078,-1.28027 -1e-5,-0.30469 0.0693,-0.58301 0.208,-0.83496 0.13867,-0.25195 0.32031,-0.4541 0.54492,-0.60645 0.22461,-0.15234 0.47754,-0.26757 0.75879,-0.3457 0.20703,-0.0547 0.51953,-0.10742 0.9375,-0.15821 0.85156,-0.10155 1.47852,-0.22265 1.88086,-0.36328 0.004,-0.14452 0.006,-0.23632 0.006,-0.27539 0,-0.42968 -0.0996,-0.73241 -0.29883,-0.9082 -0.26953,-0.23828 -0.66992,-0.35742 -1.20117,-0.35742 -0.49609,0 -0.8623,0.0869 -1.09863,0.26074 -0.23633,0.17383 -0.41113,0.48145 -0.52441,0.92285 l -1.03125,-0.14062 c 0.0937,-0.4414 0.24804,-0.79785 0.46289,-1.06934 0.21484,-0.27148 0.52539,-0.48046 0.93164,-0.62695 0.40624,-0.14648 0.87695,-0.21972 1.41211,-0.21973 0.53124,1e-5 0.96288,0.0625 1.29492,0.1875 0.33202,0.12501 0.57616,0.28223 0.73242,0.47168 0.15624,0.18946 0.26562,0.42872 0.32813,0.71777 0.0351,0.1797 0.0527,0.50391 0.0527,0.97266 l 0,1.40625 c -1e-5,0.98047 0.0224,1.60059 0.0674,1.86035 0.0449,0.25977 0.13379,0.50879 0.2666,0.74707 l -1.10156,0 c -0.10938,-0.21875 -0.17969,-0.47461 -0.21094,-0.76758 z m -0.0879,-2.35546 c -0.38281,0.15625 -0.95703,0.28906 -1.72265,0.39843 -0.4336,0.0625 -0.74024,0.13282 -0.91992,0.21094 -0.17969,0.0781 -0.31837,0.19239 -0.41602,0.34277 -0.0977,0.1504 -0.14649,0.31739 -0.14648,0.50098 -1e-5,0.28125 0.10644,0.51563 0.31933,0.70313 0.21289,0.1875 0.52441,0.28125 0.93457,0.28125 0.40625,0 0.76758,-0.0889 1.08399,-0.26661 0.3164,-0.17773 0.54882,-0.42089 0.69726,-0.72949 0.11328,-0.23828 0.16992,-0.58984 0.16992,-1.05469 z"
       style=""
       id="path3863" />
    <path
       d="m 298.28995,159.21652 0,-5.40234 -0.93164,0 0,-0.82031 0.93164,0 0,-0.66211 c 0,-0.41796 0.0371,-0.72851 0.11133,-0.93164 0.10156,-0.27343 0.28027,-0.49511 0.53613,-0.66504 0.25586,-0.16992 0.61425,-0.25488 1.07519,-0.25489 0.29688,1e-5 0.625,0.0352 0.98438,0.10547 l -0.1582,0.91992 c -0.21876,-0.0391 -0.42579,-0.0586 -0.6211,-0.0586 -0.32031,1e-5 -0.54688,0.0684 -0.67969,0.20508 -0.13281,0.13673 -0.19922,0.39258 -0.19921,0.76758 l 0,0.57422 1.21289,0 0,0.82031 -1.21289,0 0,5.40234 z"
       style=""
       id="path3865" />
    <path
       d="m 301.34268,159.21652 0,-8.58984 1.05469,0 0,8.58984 z"
       style=""
       id="path3867" />
    <path
       d="m 308.09854,158.44894 c -0.39063,0.33204 -0.7666,0.56641 -1.12793,0.70313 -0.36133,0.13672 -0.74902,0.20508 -1.16308,0.20508 -0.6836,0 -1.20899,-0.16699 -1.57618,-0.50098 -0.36718,-0.33398 -0.55078,-0.76074 -0.55078,-1.28027 0,-0.30469 0.0693,-0.58301 0.20801,-0.83496 0.13867,-0.25195 0.32031,-0.4541 0.54492,-0.60645 0.22461,-0.15234 0.47754,-0.26757 0.75879,-0.3457 0.20703,-0.0547 0.51953,-0.10742 0.9375,-0.15821 0.85156,-0.10155 1.47851,-0.22265 1.88086,-0.36328 0.004,-0.14452 0.006,-0.23632 0.006,-0.27539 0,-0.42968 -0.0996,-0.73241 -0.29883,-0.9082 -0.26953,-0.23828 -0.66992,-0.35742 -1.20117,-0.35742 -0.4961,0 -0.86231,0.0869 -1.09863,0.26074 -0.23633,0.17383 -0.41114,0.48145 -0.52442,0.92285 l -1.03125,-0.14062 c 0.0937,-0.4414 0.24805,-0.79785 0.46289,-1.06934 0.21485,-0.27148 0.52539,-0.48046 0.93164,-0.62695 0.40625,-0.14648 0.87695,-0.21972 1.41211,-0.21973 0.53125,1e-5 0.96289,0.0625 1.29493,0.1875 0.33202,0.12501 0.57616,0.28223 0.73242,0.47168 0.15624,0.18946 0.26562,0.42872 0.32812,0.71777 0.0351,0.1797 0.0527,0.50391 0.0527,0.97266 l 0,1.40625 c -1e-5,0.98047 0.0224,1.60059 0.0674,1.86035 0.0449,0.25977 0.13378,0.50879 0.2666,0.74707 l -1.10156,0 c -0.10938,-0.21875 -0.17969,-0.47461 -0.21094,-0.76758 z m -0.0879,-2.35546 c -0.38282,0.15625 -0.95703,0.28906 -1.72266,0.39843 -0.43359,0.0625 -0.74023,0.13282 -0.91992,0.21094 -0.17969,0.0781 -0.31836,0.19239 -0.41601,0.34277 -0.0977,0.1504 -0.14649,0.31739 -0.14649,0.50098 0,0.28125 0.10645,0.51563 0.31934,0.70313 0.21289,0.1875 0.52441,0.28125 0.93457,0.28125 0.40625,0 0.76757,-0.0889 1.08398,-0.26661 0.31641,-0.17773 0.54883,-0.42089 0.69727,-0.72949 0.11328,-0.23828 0.16992,-0.58984 0.16992,-1.05469 z"
       style=""
       id="path3869" />
  </g>
  <path
     d="m 155.5,84.5 -12.5,8 12.5,8 0,-4 27,0 0,-8 -27,0 0,-4 z"
     id="path3897"
     style="color:#000000;fill:#000000;stroke:none;stroke-width:2px;marker:none;visibility:visible;display:inline;overflow:visible;enable-background:accumulate" />
  <path
     d="m 334,84.5 12.5,8 -12.5,8 0,-4 -27,0 0,-8 27,0 0,-4 z"
     id="path3902"
     style="color:#000000;fill:#000000;stroke:none;stroke-width:2px;marker:none;visibility:visible;display:inline;overflow:visible;enable-background:accumulate" />
  <text
     xml:space="preserve"
     style="font-style:normal;font-weight:normal;font-size:40px;line-height:1.25;font-family:sans-serif;letter-spacing:0px;word-spacing:0px;fill:#000000;fill-opacity:1;stroke:none"
     x="121.21492"
     y="71.981415"
     id="text78777"><tspan
       sodipodi:role="line"
       id="tspan78775"></tspan></text>
  <text
     xml:space="preserve"
     style="font-style:normal;font-weight:normal;font-size:21.3333px;line-height:1.25;font-family:sans-serif;text-align:center;letter-spacing:0px;word-spacing:0px;text-anchor:middle;fill:#000000;fill-opacity:1;stroke:none"
     x="89.99781"
     y="39.208691"
     id="text84385"><tspan
       sodipodi:role="line"
       id="tspan84383"
       x="89.99781"
       y="39.208691"
       style="font-style:normal;font-variant:normal;font-weight:normal;font-stretch:normal;font-size:21.3333px;font-family:'Alte Haas Grotesk';-inkscape-font-specification:'Alte Haas Grotesk';text-align:center;text-anchor:middle">Phja-Ameerika</tspan><tspan
       sodipodi:role="line"
       x="89.99781"
       y="67.070015"
       style="font-style:normal;font-variant:normal;font-weight:normal;font-stretch:normal;font-size:21.3333px;font-family:'Alte Haas Grotesk';-inkscape-font-specification:'Alte Haas Grotesk';text-align:center;text-anchor:middle"
       id="tspan92603">laam</tspan></text>
  <text
     xml:space="preserve"
     style="font-style:normal;font-weight:normal;font-size:21.3333px;line-height:1.25;font-family:sans-serif;text-align:center;letter-spacing:0px;word-spacing:0px;text-anchor:middle;fill:#000000;fill-opacity:1;stroke:none"
     x="318.27228"
     y="32.530693"
     id="text84385-2"><tspan
       sodipodi:role="line"
       id="tspan84383-2"
       x="318.27228"
       y="32.530693"
       style="font-style:normal;font-variant:normal;font-weight:normal;font-stretch:normal;font-size:21.3333px;font-family:'Alte Haas Grotesk';-inkscape-font-specification:'Alte Haas Grotesk';text-align:center;text-anchor:middle">Euraasia</tspan><tspan
       sodipodi:role="line"
       x="318.27228"
       y="60.39201"
       style="font-style:normal;font-variant:normal;font-weight:normal;font-stretch:normal;font-size:21.3333px;font-family:'Alte Haas Grotesk';-inkscape-font-specification:'Alte Haas Grotesk';text-align:center;text-anchor:middle"
       id="tspan92603-8">laam</tspan></text>
  <text
     xml:space="preserve"
     style="font-style:normal;font-weight:normal;font-size:21.3333px;line-height:1.25;font-family:sans-serif;text-align:center;letter-spacing:0px;word-spacing:0px;text-anchor:middle;fill:#000000;fill-opacity:1;stroke:none"
     x="211.838"
     y="186.51311"
     id="text84385-2-94"><tspan
       sodipodi:role="line"
       x="211.838"
       y="186.51311"
       style="font-style:normal;font-variant:normal;font-weight:normal;font-stretch:normal;font-size:21.3333px;font-family:'Alte Haas Grotesk';-inkscape-font-specification:'Alte Haas Grotesk';text-align:center;text-anchor:middle"
       id="tspan92603-8-4">Island</tspan></text>
  <text
     xml:space="preserve"
     style="font-style:normal;font-weight:normal;font-size:10.6667px;line-height:2.55;font-family:sans-serif;text-align:center;letter-spacing:0px;word-spacing:0px;text-anchor:middle;fill:#000000;fill-opacity:1;stroke:none"
     x="9.6274099"
     y="215.09096"
     id="text84385-2-9"
     transform="rotate(-77.69031)"><tspan
       sodipodi:role="line"
       id="tspan84383-2-7"
       x="9.6274099"
       y="215.09096"
       style="font-style:normal;font-variant:normal;font-weight:normal;font-stretch:normal;font-size:10.6667px;font-family:'Alte Haas Grotesk';-inkscape-font-specification:'Alte Haas Grotesk';text-align:center;text-anchor:middle">Kesk-Atlandi</tspan><tspan
       sodipodi:role="line"
       x="9.6274099"
       y="242.8884"
       style="font-style:normal;font-variant:normal;font-weight:normal;font-stretch:normal;font-size:10.6667px;font-family:'Alte Haas Grotesk';-inkscape-font-specification:'Alte Haas Grotesk';text-align:center;text-anchor:middle"
       id="tspan92603-8-3">mestik</tspan></text>
  <text
     xml:space="preserve"
     style="font-style:normal;font-weight:normal;font-size:10.6667px;line-height:2.55;font-family:sans-serif;text-align:center;letter-spacing:0px;word-spacing:0px;text-anchor:middle;fill:#000000;fill-opacity:1;stroke:none"
     x="-182.49889"
     y="242.92242"
     id="text84385-2-9-6"
     transform="rotate(-46.437648)"><tspan
       sodipodi:role="line"
       id="tspan84383-2-7-1"
       x="-182.49889"
       y="242.92242"
       style="font-style:normal;font-variant:normal;font-weight:normal;font-stretch:normal;font-size:10.6667px;font-family:'Alte Haas Grotesk';-inkscape-font-specification:'Alte Haas Grotesk';text-align:center;text-anchor:middle">Kesk-Atlandi</tspan><tspan
       sodipodi:role="line"
       x="-182.49889"
       y="270.71985"
       style="font-style:normal;font-variant:normal;font-weight:normal;font-stretch:normal;font-size:10.6667px;font-family:'Alte Haas Grotesk';-inkscape-font-specification:'Alte Haas Grotesk';text-align:center;text-anchor:middle"
       id="tspan92603-8-3-2">mestik</tspan></text>
  <text
     xml:space="preserve"
     style="font-style:normal;font-weight:normal;font-size:21.3333px;line-height:2.55;font-family:sans-serif;text-align:center;letter-spacing:0px;word-spacing:0px;text-anchor:middle;fill:#0069f7;fill-opacity:1;stroke:none"
     x="216.60802"
     y="350.5307"
     id="text84385-2-9-6-9"
     transform="rotate(0.22897648)"><tspan
       sodipodi:role="line"
       x="216.60802"
       y="350.5307"
       style="font-style:normal;font-variant:normal;font-weight:normal;font-stretch:normal;font-size:21.3333px;font-family:'Alte Haas Grotesk';-inkscape-font-specification:'Alte Haas Grotesk';text-align:center;text-anchor:middle;fill:#0069f7;fill-opacity:1"
       id="tspan92603-8-3-2-1">Atlandi ookean</tspan></text>
</svg>
